<?xml version="1.0" encoding="UTF-8"?>
<svg xmlns="http://www.w3.org/2000/svg" xmlns:xlink="http://www.w3.org/1999/xlink" width="px" height="0px" viewBox="0 0 168 192" version="1.1">
<g id="surface1">
<path style=" stroke:none;fill-rule:nonzero;fill:rgb(100%,100%,100%);fill-opacity:1;" d="M 155.964844 39.121094 L 95.488281 3.214844 C 88.300781 -1.070312 79.339844 -1.070312 72.152344 3.214844 L 11.664062 39.121094 C 4.386719 43.511719 -0.0429688 51.40625 0 59.902344 L 0 131.703125 C -0.0390625 140.195312 4.390625 148.082031 11.664062 152.472656 L 72.140625 188.363281 C 79.328125 192.648438 88.285156 192.648438 95.476562 188.363281 L 155.953125 152.472656 C 163.234375 148.085938 167.667969 140.191406 167.628906 131.691406 L 167.628906 59.902344 C 167.671875 51.40625 163.242188 43.511719 155.964844 39.121094 Z M 155.964844 39.121094 "/>
<path style=" stroke:none;fill-rule:nonzero;fill:rgb(18.431373%,22.745098%,24.313725%);fill-opacity:1;" d="M 156.308594 39.207031 L 95.699219 3.222656 C 88.496094 -1.074219 79.515625 -1.074219 72.3125 3.222656 L 11.6875 39.207031 C 4.394531 43.605469 -0.0429688 51.519531 0 60.035156 L 0 131.992188 C -0.0390625 140.503906 4.398438 148.410156 11.6875 152.804688 L 72.296875 188.78125 C 79.503906 193.074219 88.480469 193.074219 95.6875 188.78125 L 156.296875 152.804688 C 163.59375 148.410156 168.039062 140.5 167.996094 131.980469 L 167.996094 60.035156 C 168.039062 51.519531 163.601562 43.605469 156.308594 39.207031 Z M 74.421875 185.101562 L 13.8125 149.128906 C 7.824219 145.5 4.175781 138.996094 4.199219 131.992188 L 4.199219 60.035156 C 4.171875 53.03125 7.820312 46.523438 13.8125 42.898438 L 74.421875 6.910156 C 80.320312 3.394531 87.675781 3.394531 93.574219 6.910156 L 154.136719 42.898438 C 159.128906 45.921875 162.535156 50.992188 163.445312 56.757812 C 161.429688 52.472656 156.902344 51.296875 151.625 54.328125 L 94.328125 89.816406 C 87.179688 93.980469 81.910156 98.675781 81.898438 107.292969 L 81.898438 177.953125 C 81.898438 183.113281 83.972656 186.449219 87.179688 187.433594 C 86.128906 187.625 85.066406 187.726562 84 187.734375 C 80.628906 187.734375 77.320312 186.824219 74.421875 185.101562 Z M 74.421875 185.101562 "/>
<path style=" stroke:none;fill-rule:nonzero;fill:rgb(22.745098%,69.411765%,29.019608%);fill-opacity:1;" d="M 140.253906 138.792969 L 125.191406 147.804688 C 124.789062 147.96875 124.515625 148.351562 124.5 148.785156 L 124.5 152.746094 C 124.5 153.230469 124.828125 153.421875 125.226562 153.195312 L 140.523438 143.894531 C 140.894531 143.613281 141.074219 143.140625 140.980469 142.683594 L 140.980469 139.207031 C 140.96875 138.757812 140.617188 138.566406 140.253906 138.792969 Z M 140.253906 138.792969 "/>
<path style=" stroke:none;fill-rule:nonzero;fill:rgb(100%,100%,100%);fill-opacity:1;" d="M 108.195312 105.625 C 108.679688 105.382812 109.082031 105.625 109.09375 106.3125 L 109.140625 111.570312 C 110.953125 110.746094 112.972656 110.5 114.929688 110.867188 C 115.304688 110.964844 115.464844 111.472656 115.316406 112.078125 L 114.167969 116.691406 C 114.082031 117.039062 113.898438 117.359375 113.648438 117.613281 C 113.558594 117.699219 113.457031 117.773438 113.34375 117.832031 C 113.207031 117.90625 113.050781 117.929688 112.894531 117.902344 C 110.988281 117.480469 108.992188 117.800781 107.3125 118.800781 C 104.859375 119.90625 103.253906 122.320312 103.183594 125.011719 C 103.183594 127.433594 104.394531 128.101562 108.621094 128.171875 C 114.203125 128.269531 116.625 130.703125 116.6875 136.335938 C 116.554688 142.210938 113.84375 147.734375 109.273438 151.4375 L 109.371094 156.59375 C 109.363281 157.234375 109.03125 157.828125 108.488281 158.167969 L 105.4375 159.925781 C 104.953125 160.167969 104.550781 159.925781 104.539062 159.246094 L 104.539062 154.171875 C 101.925781 155.261719 99.273438 155.515625 97.578125 154.839844 C 97.261719 154.71875 97.117188 154.246094 97.25 153.699219 L 98.351562 149.039062 C 98.4375 148.667969 98.625 148.332031 98.898438 148.070312 C 98.984375 147.988281 99.082031 147.917969 99.1875 147.863281 C 99.34375 147.792969 99.527344 147.792969 99.683594 147.863281 C 101.84375 148.449219 104.144531 148.15625 106.089844 147.050781 C 108.894531 145.699219 110.71875 142.898438 110.824219 139.785156 C 110.824219 137.171875 109.382812 136.082031 105.980469 136.054688 C 101.585938 136.054688 97.503906 135.207031 97.417969 128.789062 C 97.519531 123.183594 100.125 117.914062 104.515625 114.429688 L 104.296875 109.148438 C 104.296875 108.496094 104.628906 107.894531 105.183594 107.550781 Z M 108.195312 105.625 "/>
</g>
</svg>
