<?xml version="1.0" encoding="UTF-8"?>
<svg xmlns="http://www.w3.org/2000/svg" xmlns:xlink="http://www.w3.org/1999/xlink" width="px" height="0px" viewBox="0 0 192 270" version="1.1">
<g id="surface1">
<path style=" stroke:none;fill-rule:nonzero;fill:rgb(14.901961%,30.196078%,89.411765%);fill-opacity:1;" d="M 95.882812 269.316406 L 17.746094 247.6875 L 0.332031 52.925781 L 191.667969 52.925781 L 174.234375 247.65625 Z M 95.882812 269.316406 "/>
<path style=" stroke:none;fill-rule:nonzero;fill:rgb(16.078431%,39.607843%,94.509804%);fill-opacity:1;" d="M 159.3125 235.257812 L 174.207031 68.851562 L 96 68.851562 L 96 252.761719 Z M 159.3125 235.257812 "/>
<path style=" stroke:none;fill-rule:nonzero;fill:rgb(92.156863%,92.156863%,92.156863%);fill-opacity:1;" d="M 40.25 141.085938 L 42.398438 164.972656 L 96 164.972656 L 96 141.085938 Z M 40.25 141.085938 "/>
<path style=" stroke:none;fill-rule:nonzero;fill:rgb(92.156863%,92.156863%,92.156863%);fill-opacity:1;" d="M 35.9375 92.738281 L 38.113281 116.625 L 96 116.625 L 96 92.738281 Z M 35.9375 92.738281 "/>
<path style=" stroke:none;fill-rule:nonzero;fill:rgb(92.156863%,92.156863%,92.156863%);fill-opacity:1;" d="M 96 203.121094 L 95.894531 203.148438 L 69.21875 195.964844 L 67.511719 176.914062 L 43.46875 176.914062 L 46.824219 214.421875 L 95.890625 228.003906 L 96 227.972656 Z M 96 203.121094 "/>
<path style=" stroke:none;fill-rule:nonzero;fill:rgb(0%,0%,0%);fill-opacity:1;" d="M 45.363281 0 L 74.375 0 L 74.375 12.097656 L 57.496094 12.097656 L 57.496094 24.195312 L 74.375 24.195312 L 74.375 36.292969 L 45.363281 36.292969 Z M 45.363281 0 "/>
<path style=" stroke:none;fill-rule:nonzero;fill:rgb(0%,0%,0%);fill-opacity:1;" d="M 80.175781 0 L 109.1875 0 L 109.1875 10.519531 L 92.308594 10.519531 L 92.308594 12.625 L 109.1875 12.625 L 109.1875 36.820312 L 80.175781 36.820312 L 80.175781 25.773438 L 97.054688 25.773438 L 97.054688 23.671875 L 80.175781 23.671875 Z M 80.175781 0 "/>
<path style=" stroke:none;fill-rule:nonzero;fill:rgb(0%,0%,0%);fill-opacity:1;" d="M 114.988281 0 L 144 0 L 144 10.519531 L 127.121094 10.519531 L 127.121094 12.625 L 144 12.625 L 144 36.820312 L 114.988281 36.820312 L 114.988281 25.773438 L 131.867188 25.773438 L 131.867188 23.671875 L 114.988281 23.671875 Z M 114.988281 0 "/>
<path style=" stroke:none;fill-rule:nonzero;fill:rgb(100%,100%,100%);fill-opacity:1;" d="M 151.59375 141.085938 L 155.917969 92.738281 L 95.917969 92.738281 L 95.917969 116.625 L 129.667969 116.625 L 127.488281 141.085938 L 95.917969 141.085938 L 95.917969 164.972656 L 125.414062 164.972656 L 122.632812 195.949219 L 95.917969 203.140625 L 95.917969 227.992188 L 145.023438 214.421875 L 145.382812 210.382812 L 151.011719 147.5 Z M 151.59375 141.085938 "/>
</g>
</svg>
