<?xml version="1.0" encoding="UTF-8"?>
<svg xmlns="http://www.w3.org/2000/svg" xmlns:xlink="http://www.w3.org/1999/xlink" width="px" height="0px" viewBox="0 0 192 192" version="1.1">
<g id="surface1">
<path style=" stroke:none;fill-rule:nonzero;fill:rgb(3.529412%,18.039216%,12.54902%);fill-opacity:1;" d="M 21 0 L 171 0 C 182.597656 0 192 9.402344 192 21 L 192 171 C 192 182.597656 182.597656 192 171 192 L 21 192 C 9.402344 192 0 182.597656 0 171 L 0 21 C 0 9.402344 9.402344 0 21 0 Z M 21 0 "/>
<path style=" stroke:none;fill-rule:nonzero;fill:rgb(100%,100%,99.215686%);fill-opacity:1;" d="M 139.78125 70.648438 L 139.78125 120.316406 C 139.78125 137.433594 138.53125 145.640625 134.773438 152.738281 C 131.296875 159.554688 126.703125 163.867188 117.242188 168.597656 L 97.347656 159.136719 C 106.808594 154.6875 111.398438 150.792969 114.320312 144.804688 C 117.382812 138.683594 118.355469 131.589844 118.355469 112.945312 L 118.355469 70.648438 Z M 105.695312 37.558594 L 105.695312 136.738281 C 94.703125 138.824219 86.632812 139.660156 77.871094 139.660156 C 51.710938 139.660156 38.078125 127.832031 38.078125 105.152344 C 38.078125 83.308594 52.546875 69.117188 74.945312 69.117188 C 78.425781 69.117188 81.070312 69.394531 84.269531 70.230469 L 84.269531 37.558594 Z M 77.035156 86.371094 C 66.183594 86.371094 59.921875 93.050781 59.921875 104.734375 C 59.921875 116.144531 65.902344 122.40625 76.894531 122.40625 C 79.261719 122.40625 81.207031 122.265625 84.269531 121.851562 L 84.269531 87.480469 C 81.765625 86.648438 79.679688 86.371094 77.035156 86.371094 Z M 139.78125 37.671875 L 139.78125 59.65625 L 118.355469 59.65625 L 118.355469 37.671875 Z M 139.78125 37.671875 "/>
</g>
</svg>
