<?xml version="1.0" encoding="UTF-8"?>
<svg xmlns="http://www.w3.org/2000/svg" xmlns:xlink="http://www.w3.org/1999/xlink" width="px" height="0px" viewBox="0 0 192 246" version="1.1">
<g id="surface1">
<path style=" stroke:none;fill-rule:nonzero;fill:rgb(0%,0%,0%);fill-opacity:1;" d="M 57.375 152.050781 C 50.0625 146.316406 42.261719 140.820312 36.929688 133.074219 C 25.710938 119.417969 17.074219 103.609375 11.167969 86.996094 C 7.597656 76.191406 6.375 64.609375 1.769531 54.222656 C -3.039062 46.679688 2.601562 38.4375 10.886719 36.039062 C 14.574219 35.332031 21.0625 31.859375 13.234375 34.34375 C 6.210938 39.476562 5.53125 29.679688 12.734375 29.058594 C 17.648438 28.40625 19.457031 24.398438 17.773438 20.789062 C 12.496094 17.359375 30.566406 13.59375 21.472656 8.472656 C 12.007812 -1.710938 34.71875 -3.671875 29.113281 7.894531 C 27.773438 16.789062 44.988281 6.261719 40.992188 16.535156 C 45.050781 21.46875 56.195312 17.660156 55.914062 24.578125 C 61.828125 24.984375 63.859375 29.941406 69.40625 30.324219 C 75.164062 32.914062 85.589844 34.953125 87.546875 41.417969 C 81.839844 45.921875 68.625 32.113281 67.988281 44.582031 C 69.714844 63.003906 69.273438 81.980469 76.03125 99.523438 C 79.230469 110.144531 86.984375 118.503906 93.980469 126.777344 C 100.679688 134.878906 109.753906 140.585938 119.003906 145.386719 C 127.113281 149.199219 135.859375 151.726562 144.703125 153.316406 C 148.285156 150.582031 154.617188 140.417969 160.207031 144.703125 C 160.476562 149.523438 149.109375 154.773438 159.675781 154.242188 C 165.882812 152.371094 170.183594 159.023438 175.292969 153.023438 C 180.003906 158.582031 194.863281 149.472656 191.511719 160.835938 C 186.980469 163.75 180.375 161.988281 175.839844 166 C 168.359375 162.273438 162.40625 169.328125 154.125 168.4375 C 144.929688 170.082031 135.570312 170.742188 126.246094 170.757812 C 110.949219 169.554688 95.332031 169.046875 80.78125 163.734375 C 72.578125 161.359375 64.582031 156.703125 57.375 152.050781 Z M 70.292969 157.632812 C 78.296875 161.082031 86.125 164.71875 94.898438 165.820312 C 108.816406 167.746094 123.191406 170.71875 137.160156 168.007812 C 130.835938 165.164062 124.300781 169.113281 118.003906 165.976562 C 110.449219 167.59375 102.34375 165.558594 94.664062 164.558594 C 85.933594 160.679688 76.507812 158.015625 68.332031 152.980469 C 58.113281 149.257812 73.613281 157.75 76.375 158.441406 C 82.761719 162.054688 69.351562 156.585938 67.457031 155.085938 C 62.109375 152.09375 61.425781 152.71875 66.929688 155.757812 C 68.039062 156.402344 69.132812 157.082031 70.292969 157.632812 Z M 55.0625 146.902344 C 62.820312 149.765625 55.027344 141.464844 51.476562 141.945312 C 49.902344 139.21875 45.457031 137.5 48.59375 136.039062 C 42.957031 137.988281 42.6875 128.621094 40.039062 129.960938 C 34.078125 128.082031 37.71875 121.433594 30.613281 117.347656 C 29.964844 113.042969 23.554688 109.3125 21.515625 102.824219 C 20.613281 99.5 14.273438 89.960938 18.167969 98.839844 C 21.480469 107.386719 27.3125 114.710938 32.167969 122.019531 C 35.933594 128.980469 40.386719 136.261719 47.25 140.605469 C 49.5625 142.820312 51.796875 146.207031 55.0625 146.902344 Z M 32.71875 122.441406 C 32.988281 121.269531 34.136719 124.96875 32.71875 122.441406 Z M 64.355469 150.332031 C 66.070312 149.566406 61.882812 149.367188 64.355469 150.332031 Z M 68.5625 151.863281 C 68.125 149.75 66.640625 153.046875 68.5625 151.863281 Z M 73.835938 154.054688 C 76.339844 151.671875 69.964844 152.554688 73.835938 154.054688 Z M 82.867188 159.074219 C 84.394531 156.832031 77.988281 158.230469 82.867188 159.074219 Z M 65.523438 147.019531 C 69.417969 144.507812 60.484375 146.984375 65.523438 147.019531 Z M 69.476562 148.984375 C 69.363281 147.660156 68.066406 149.582031 69.476562 148.984375 Z M 89.234375 161.28125 C 92.410156 163.28125 107.789062 165.660156 98.160156 162.101562 C 96.546875 162.441406 80.308594 157.519531 89.234375 161.28125 Z M 57.867188 136.921875 C 57.558594 135.59375 52.933594 135.449219 57.867188 136.921875 Z M 67.0625 142.273438 C 69.460938 140.605469 62.09375 140.984375 67.0625 142.273438 Z M 74.800781 147 C 78.238281 145.707031 69.230469 145.703125 74.800781 147 Z M 54.117188 132.859375 C 57.847656 135.710938 69.15625 133.226562 59.828125 131.15625 C 55.585938 128.902344 46.023438 127.359375 52.539062 132.515625 Z M 80.042969 148.632812 C 81.597656 145.996094 73.53125 147.125 80.042969 148.632812 Z M 72.167969 142.394531 C 81.277344 144.960938 64.503906 136.644531 69.917969 141.445312 L 71.117188 141.988281 Z M 87.960938 151.492188 C 96.589844 151.574219 80.160156 150.304688 87.960938 151.492188 Z M 50.800781 127.882812 C 50.460938 126.277344 48.671875 128.015625 50.800781 127.882812 Z M 102.558594 159.65625 C 102.789062 156.765625 99.742188 161.8125 102.558594 159.65625 Z M 65.53125 136.875 C 65.007812 135.347656 62.835938 136.808594 65.53125 136.875 Z M 51.617188 126.875 C 56.574219 126.578125 44.832031 124.699219 51.617188 126.875 Z M 35.132812 116.253906 C 34.515625 113.882812 29.746094 111.996094 35.132812 116.253906 Z M 78.40625 143.632812 C 77.5 142.597656 77.976562 143.855469 78.40625 143.632812 Z M 105.335938 160.109375 C 105.25 158.527344 103.867188 160.703125 105.335938 160.109375 Z M 76.023438 141.175781 C 76.507812 139.144531 71.796875 140.558594 76.023438 141.175781 Z M 55.957031 128.5 C 59.648438 128.105469 50.046875 126.015625 55.957031 128.5 Z M 89.898438 149.523438 C 95.644531 147.253906 84.296875 148.417969 89.898438 149.523438 Z M 72.246094 137.578125 C 78.867188 138.429688 64.363281 133.085938 70.789062 137.097656 Z M 95.257812 151.683594 C 101.441406 148.003906 99.402344 160.3125 105.746094 152.722656 C 112.003906 148.167969 100.34375 158.355469 108.050781 153.535156 C 113.632812 149.816406 121.871094 155.300781 127.074219 157.085938 C 130.816406 156.90625 134.457031 160.3125 138.296875 158.238281 C 145.683594 156.253906 123.847656 155.296875 129.570312 151.78125 C 122.8125 153.742188 117.820312 149.445312 114.496094 145.125 C 106.914062 143.378906 98.152344 139.519531 94.363281 132.824219 C 92.820312 130.316406 96.589844 133.183594 93.03125 129.074219 C 88.464844 125.027344 86.183594 120.425781 83.117188 115.503906 C 79.453125 113.554688 79.023438 107.820312 78.65625 115.3125 C 78.683594 110.582031 74.230469 107.398438 73.144531 108.71875 C 73.125 104.167969 77.910156 106.453125 74.5625 103.082031 C 73.839844 98.363281 71.464844 93.445312 70.753906 88.117188 C 69.648438 85.550781 70.597656 80.050781 66.96875 85.863281 C 65.648438 92.007812 66.53125 78.3125 68.585938 82.824219 C 71.285156 78.222656 67.617188 78.761719 67.46875 79.398438 C 69.226562 75.511719 68.582031 69.996094 67.007812 72.097656 C 67.945312 67.976562 68.488281 56.933594 65.609375 58.890625 C 67.355469 54.582031 68.921875 39.167969 61.339844 45.046875 C 58.269531 45.089844 52.949219 46.15625 50.4375 47.402344 C 58.316406 51.734375 49.640625 48.96875 46.429688 48.277344 C 46.011719 52.289062 42.835938 50.554688 38.863281 50.59375 C 45.207031 51.378906 35.773438 57.0625 32.140625 54.855469 C 27.410156 57.105469 36.214844 62.726562 32.230469 64.464844 C 32.722656 67.082031 24.992188 63.519531 25.597656 69.570312 C 21.011719 67.644531 24.96875 76.75 27.265625 73.667969 C 35.066406 75.777344 32.757812 80.574219 32.953125 85.132812 C 31.683594 87.789062 26.675781 78.890625 31.839844 79.300781 C 27.765625 72.703125 27.332031 76.914062 23.949219 79.980469 C 23.164062 80.199219 32.578125 84.339844 26.671875 86.386719 C 31.871094 87.1875 32.019531 91.726562 33.082031 94.59375 C 36.203125 97.839844 35.5625 91.011719 39.304688 94.914062 C 36.933594 91.4375 26.769531 85.117188 34.953125 87.144531 C 34.910156 83.648438 33.472656 80.828125 35.984375 80.894531 C 38.46875 76.410156 33.378906 91.953125 38.980469 86.253906 C 40.53125 85.578125 40.917969 81.765625 43.703125 86.617188 C 47.75 90.585938 45.164062 93.460938 39.457031 89.824219 C 40.476562 93.28125 47.09375 94.511719 45.847656 99.914062 C 47.164062 104.667969 49.007812 102.917969 50.617188 102.640625 C 51.878906 107.257812 52.59375 103.867188 52.652344 101.664062 C 58.425781 102.898438 57.070312 106.300781 58.882812 108.675781 C 62.859375 110.464844 53.1875 96.546875 60.015625 104.492188 C 67.199219 110.960938 62.710938 113.660156 56.261719 112.621094 C 60.34375 112.292969 61.65625 118.125 66.761719 117.917969 C 71.417969 120.128906 74.570312 128.605469 66.546875 125.074219 C 63.765625 122.570312 53.914062 119.484375 61.960938 124.242188 C 69.386719 127.675781 75.292969 129.726562 82.457031 134.035156 C 87.582031 137.679688 89.796875 141.859375 91.738281 142.6875 C 87.429688 144.738281 78.753906 141.050781 85.199219 139.917969 C 81.175781 139.191406 76.65625 137.164062 80.503906 142.152344 C 83.78125 144.882812 92.101562 144.59375 93.597656 144.902344 C 92.332031 147.679688 90.160156 147.898438 93.648438 148.113281 C 89.757812 150.183594 94.898438 150.503906 95.257812 151.683594 Z M 87.300781 129.285156 C 84.933594 126.816406 84.320312 122.195312 86.878906 126.214844 C 88.195312 126.742188 91.082031 133.769531 87.300781 129.285156 Z M 113.210938 145.695312 C 114.6875 145.597656 113.253906 146.8125 113.210938 145.695312 Z M 83.566406 123.234375 C 83.472656 119.5 84.417969 126.113281 83.566406 123.234375 Z M 80.992188 119.78125 C 78.007812 114.046875 84.742188 121.402344 80.992188 119.78125 Z M 49.777344 98.304688 C 51.53125 97.839844 50.644531 101.289062 49.777344 98.304688 Z M 74.621094 111.726562 C 75.695312 107.703125 75.878906 115.101562 74.621094 111.726562 Z M 57.070312 99.5625 C 55.835938 97.34375 59.65625 101.644531 57.070312 99.5625 Z M 72.128906 104.375 C 69.308594 98.078125 74.128906 100.929688 72.753906 105.40625 Z M 46.160156 87.109375 C 44.898438 85.042969 42.816406 78.976562 43.488281 77.125 C 44.089844 80.140625 49.917969 90.101562 46.339844 81.253906 C 42.394531 73.835938 51.0625 83.65625 51.957031 85.511719 C 52.375 87.347656 49.519531 85.007812 51.449219 89.324219 C 47.925781 84.410156 49.371094 92.039062 46.160156 87.109375 Z M 38.136719 81.59375 C 38.464844 76.789062 39.972656 84.890625 38.136719 81.59375 Z M 41.746094 82.835938 C 43.46875 79.207031 44.664062 87.890625 41.746094 82.835938 Z M 33.0625 76.136719 C 30.074219 73.175781 27.910156 70.445312 33.203125 74.300781 C 35.238281 74.375 28.671875 68.09375 33.695312 72.304688 C 38.96875 73.261719 36.296875 80.933594 33.0625 76.136719 Z M 37.621094 76.019531 C 39.359375 74.304688 38.542969 77.707031 37.621094 76.019531 Z M 40.433594 76.914062 C 37.796875 72 43.625 78.976562 40.433594 76.914062 Z M 34.851562 71.601562 C 26.164062 63.890625 45.761719 75.628906 36.269531 73.027344 Z M 59.738281 86.015625 C 55.976562 83.769531 58.738281 70.199219 60.023438 79.476562 C 63.679688 78.296875 59.824219 84.273438 62.542969 84.214844 C 62.117188 87.984375 60.898438 89.339844 59.738281 86.015625 Z M 68.945312 91.441406 C 69.3125 87.347656 69.71875 94.238281 68.945312 91.441406 Z M 67.347656 89.863281 C 67.757812 88.117188 67.386719 91.921875 67.347656 89.863281 Z M 36.550781 69.066406 C 30.972656 61.390625 52.769531 76.832031 40.128906 71.011719 C 38.808594 70.667969 37.214844 70.542969 36.550781 69.066406 Z M 54.28125 78.4375 C 53.753906 71.972656 55.457031 79.507812 54.28125 78.4375 Z M 67.738281 87.046875 C 68.777344 83.363281 67.816406 89.480469 67.738281 87.046875 Z M 37.410156 66.136719 C 40.726562 65.429688 51.152344 71.941406 41.578125 67.996094 C 40.515625 66.824219 38.246094 67.355469 37.410156 66.136719 Z M 65.890625 80.289062 C 66.242188 73.679688 67.871094 76.34375 65.90625 81.238281 Z M 39.878906 63.835938 C 41.230469 61.859375 36.289062 54.902344 40.589844 61.34375 C 42.449219 62.8125 45.96875 63.804688 42.859375 64.425781 C 47.75 68.726562 41.667969 65.589844 39.878906 63.835938 Z M 64.480469 78.226562 C 65.414062 70.695312 65.308594 82.636719 64.480469 78.226562 Z M 37.054688 56.882812 C 38.085938 56.441406 37.601562 58.257812 37.054688 56.882812 Z M 43.472656 60.691406 C 45.125 57.234375 46.519531 64.546875 43.472656 60.691406 Z M 61.574219 70.730469 C 61.558594 69.40625 61.917969 72.660156 61.574219 70.730469 Z M 60.523438 68.417969 C 58.011719 62.238281 62.863281 71.6875 60.523438 68.417969 Z M 58.984375 64.363281 C 58.5625 61.8125 60.417969 67.570312 58.984375 64.363281 Z M 61.496094 60.296875 C 59.769531 57.269531 63.671875 46.949219 64.109375 53.347656 C 62.289062 58.335938 63.585938 61.121094 64.851562 54.433594 C 67.195312 49.171875 64.34375 64.824219 61.496094 60.296875 Z M 64.074219 44.949219 C 64.824219 44.027344 64.242188 46.058594 64.074219 44.949219 Z M 59.765625 129.597656 C 58.746094 128.707031 59.898438 130.160156 59.765625 129.597656 Z M 68.640625 134.070312 C 73.578125 135.339844 73.554688 133.308594 69.09375 132.703125 C 66.695312 130.476562 59.117188 128.117188 65.898438 132.429688 C 66.347656 133.5625 67.765625 133.535156 68.640625 134.070312 Z M 51.113281 122.464844 C 53.832031 124.488281 61.359375 128.195312 54.988281 123.238281 C 57.136719 120.746094 50.878906 119.421875 52.953125 117.757812 C 47.671875 114.535156 48.785156 114.824219 52.488281 114.925781 C 46.140625 112.09375 53.402344 112.308594 53.0625 110.855469 C 50.613281 110.378906 40.902344 106.554688 46.617188 111.171875 C 40.808594 108.222656 45.234375 112.269531 43.476562 111.84375 C 37.539062 110.230469 48.765625 116.351562 42.535156 114.832031 C 45.941406 117.519531 51.703125 121.726562 43.972656 117.675781 C 42.957031 119.140625 49.503906 121.355469 51.113281 122.464844 Z M 60.398438 127.785156 C 71.683594 131.40625 54.859375 123.347656 60.398438 127.785156 Z M 107.917969 156.484375 C 108.066406 154.25 106.378906 158.390625 107.917969 156.484375 Z M 112.804688 158.535156 C 115.410156 156.019531 112.914062 162.542969 117.121094 157.917969 C 117.164062 154.605469 116.992188 152.652344 112.285156 156.675781 C 110.984375 157.394531 110.40625 160.441406 112.804688 158.535156 Z M 35.269531 109.988281 C 34.46875 106.851562 29.660156 106.867188 35.269531 109.988281 Z M 40.480469 113.394531 C 38.542969 110.191406 33.570312 110.496094 40.480469 113.394531 Z M 70.15625 131.234375 C 73.054688 133.804688 83.460938 133.117188 73.671875 131.554688 C 72.226562 129.417969 64.472656 129.929688 70.15625 131.234375 Z M 110.945312 156.351562 C 115.402344 152.621094 106.625 158.015625 110.945312 156.351562 Z M 120.21875 162.703125 C 120.25 161.507812 118.296875 163.226562 120.21875 162.703125 Z M 120.234375 161.027344 C 125.171875 155.816406 115.453125 161.335938 120.234375 161.027344 Z M 22.4375 99.277344 C 18.230469 93.292969 19.824219 90.605469 15.761719 85.714844 C 14.992188 81.976562 8.800781 73.496094 12.5625 82.480469 C 16.003906 87.734375 17.023438 95.871094 22.4375 99.277344 Z M 118.683594 159.371094 C 127.773438 153.515625 114.957031 156.824219 118.683594 159.371094 Z M 125.621094 162.078125 C 130.171875 158.1875 122.742188 161.265625 125.621094 162.078125 Z M 33.722656 103.371094 C 35.023438 101.441406 30.359375 103.121094 33.722656 103.371094 Z M 124.171875 160.230469 C 128.578125 157.398438 123.15625 157.832031 123.375 160.488281 Z M 64.398438 122.667969 C 64.246094 120.753906 62.070312 122.832031 64.398438 122.667969 Z M 68.089844 124.785156 C 66.914062 122.421875 66.289062 125.160156 68.089844 124.785156 Z M 131.238281 162.140625 C 136.882812 158.082031 127.820312 161.363281 130.058594 162.914062 Z M 129.078125 161.101562 C 133.675781 157.261719 124.226562 162.800781 129.078125 161.101562 Z M 140.121094 168.429688 C 143.207031 166.371094 136.367188 167.765625 140.121094 168.429688 Z M 36.550781 101.976562 C 40.6875 102.902344 53.085938 112.132812 45.773438 102.617188 C 42.027344 101.511719 44.273438 92.386719 40.453125 94 C 43.015625 98.273438 42.558594 100.085938 37.175781 97.398438 C 30.414062 94.101562 33.375 99.023438 34.699219 100.382812 C 32.894531 100.792969 37.082031 101.945312 36.550781 101.976562 Z M 17.707031 87.140625 C 18.445312 84.082031 10.882812 70.339844 14.136719 80.25 C 15.308594 82.328125 15.183594 86.261719 17.707031 87.140625 Z M 52.300781 108.402344 C 50.167969 106.628906 52.195312 108.148438 52.300781 108.402344 Z M 57.542969 109.621094 C 57.542969 106.382812 51.746094 108.304688 57.542969 109.621094 Z M 103.003906 138.1875 C 102.136719 135.976562 99.578125 138.140625 103.003906 138.1875 Z M 105.1875 139.777344 C 104.863281 138.539062 103.925781 140.015625 105.1875 139.777344 Z M 123.207031 151.097656 C 124.9375 149.820312 121.042969 150.929688 123.207031 151.097656 Z M 27.117188 89.535156 C 32.074219 87.621094 21.804688 88.171875 27.117188 89.535156 Z M 99.003906 134.683594 C 98.945312 131.484375 95.839844 135.480469 99.003906 134.683594 Z M 25.160156 84.980469 C 28.34375 83.914062 22.210938 84.277344 25.160156 84.980469 Z M 34.398438 89.445312 C 34.34375 88.394531 33.421875 89.847656 34.398438 89.445312 Z M 147.125 158.363281 C 151.21875 157.535156 160.550781 160.441406 162.058594 157.28125 C 157.085938 157.160156 144.859375 153.78125 144.28125 158.082031 L 145.367188 158.253906 Z M 37.335938 90.183594 C 37.410156 86.941406 34.800781 90.0625 37.335938 90.183594 Z M 13.042969 73.378906 C 11.9375 67.203125 8.84375 72.445312 13.042969 73.378906 Z M 18.832031 74.832031 C 18.90625 72.847656 13.53125 73.046875 18.832031 74.832031 Z M 22.144531 76.457031 C 21.1875 75.683594 21.398438 77.429688 22.144531 76.457031 Z M 42.980469 89.777344 C 43.964844 88.878906 40.65625 89.113281 42.980469 89.777344 Z M 19.941406 72.796875 C 19.378906 68.132812 13.226562 72.097656 19.941406 72.796875 Z M 8.058594 65.113281 C 7.890625 62.960938 6.902344 65.921875 8.058594 65.113281 Z M 9.828125 63.78125 C 9.539062 61.230469 8.308594 64.105469 9.828125 63.78125 Z M 19.589844 69.589844 C 23.71875 67.976562 12.070312 66.246094 18.746094 69.289062 Z M 150.257812 150.058594 C 152.902344 147.644531 146.902344 149.3125 150.257812 150.058594 Z M 166.046875 158.214844 C 167.105469 155.097656 163.378906 158.625 166.046875 158.214844 Z M 20.589844 64.492188 C 21.027344 61.46875 17.3125 65.09375 20.589844 64.492188 Z M 6.695312 55.210938 C 5.949219 50.949219 6.050781 43.460938 13.1875 45.988281 C 3.664062 47.878906 19.785156 57.796875 17.75 49.964844 C 21.757812 50.160156 25.585938 47.601562 23.484375 51.480469 C 31.378906 50.613281 36.847656 43.789062 44.472656 44.75 C 50.410156 43.960938 56.90625 43.367188 63.304688 40.984375 C 68.566406 40.605469 73.632812 34.960938 70.75 31.609375 C 63.574219 31.003906 56.0625 31.898438 48.132812 33.472656 C 39.34375 35.292969 31.359375 38.753906 22.492188 40.238281 C 13.84375 41.398438 24.226562 43.429688 21.75 43.882812 C 17.242188 45.441406 27.132812 46.492188 21.167969 48.140625 C 17.484375 47.441406 13.648438 46.179688 15.222656 42.308594 C 6.945312 43.382812 -0.332031 46.804688 6.210938 55.207031 Z M 26.652344 45.082031 C 28.589844 37.953125 37.046875 50.949219 29.828125 46.027344 C 28.96875 45.382812 27.546875 44.859375 26.652344 45.082031 Z M 27.027344 41.621094 C 29.828125 39.546875 28.515625 42.792969 27.027344 41.621094 Z M 30.582031 41.683594 C 30.839844 38.402344 38.730469 43.417969 31.882812 42.859375 Z M 35.449219 39.730469 C 37.230469 37.65625 35.964844 41.570312 35.449219 39.730469 Z M 36.695312 38.902344 C 39.65625 35.355469 53.453125 36.636719 43.355469 38.550781 C 40.648438 36.519531 38.574219 39.75 36.695312 38.902344 Z M 54.703125 36.132812 C 54.257812 26.445312 63.652344 39.570312 54.703125 36.132812 Z M 59.8125 36.101562 C 61.683594 31.222656 67.066406 34.144531 60.679688 35.121094 C 60.820312 35.644531 60.492188 37.644531 59.8125 36.101562 Z M 18.574219 61.988281 C 24.152344 58.578125 12.648438 59.03125 18.574219 61.988281 Z M 22.703125 63.125 C 24.660156 61.054688 18.445312 62.285156 22.703125 63.125 Z M 10.539062 54.527344 C 13.726562 52.082031 6.765625 53.597656 10.539062 54.527344 Z M 175.363281 157.324219 C 175.457031 154.488281 172.925781 158.601562 175.363281 157.324219 Z M 158.617188 145.929688 C 159.089844 142.667969 156.460938 146.210938 158.617188 145.929688 Z M 179.96875 158.425781 C 184.425781 158.441406 193.480469 157.042969 183.777344 157.046875 C 182.253906 157.28125 174.90625 157.234375 179.96875 158.425781 Z M 26.332031 61.125 C 29.941406 60.882812 31.976562 57.160156 25.628906 57.371094 C 15.796875 56.359375 34.304688 60.730469 24.371094 59.480469 C 23.035156 60.359375 26.253906 61.371094 26.332031 61.125 Z M 29.511719 62.730469 C 29.132812 60.421875 28.390625 63.957031 29.511719 62.730469 Z M 33.28125 52.707031 C 34.847656 50.773438 31.113281 52.191406 33.28125 52.707031 Z M 21.273438 32.703125 C 27.71875 30.523438 36.527344 28.070312 39.570312 33.78125 C 36.472656 30.070312 38.320312 26.414062 41.242188 31.84375 C 45.375 37.335938 47.445312 29.347656 44.757812 27.503906 C 47.824219 31.296875 51.304688 33.089844 46.808594 27.742188 C 51.695312 21.878906 37.023438 28.511719 33.6875 28.441406 C 32.085938 29.160156 17.121094 32.246094 21.273438 32.703125 Z M 25.050781 25.5 C 28.726562 22.738281 37.757812 27.144531 31.960938 22.75 C 31.394531 22.253906 19.269531 26.085938 25.050781 25.5 Z M 38.445312 26.050781 C 42.742188 26.160156 36.59375 20.289062 41.710938 22.949219 C 40.875 20.214844 35.75 19.699219 33.242188 18.605469 C 31.824219 21.109375 36.125 26.085938 38.445312 26.050781 Z M 27.402344 13.929688 C 28.886719 11.921875 24.792969 14.953125 27.402344 13.929688 Z M 32.875 15.234375 C 39.804688 14.320312 31.109375 12.261719 31.476562 15.164062 Z M 22.652344 7.265625 C 17.773438 0.914062 31.832031 8.332031 26.871094 1.683594 C 22.699219 -1.628906 18.691406 5.414062 22.652344 7.265625 Z M 85.257812 40.878906 C 87.492188 36.929688 76.023438 35.550781 83.75 39.480469 C 84.460938 39.714844 84.300781 41.152344 85.257812 40.878906 Z M 85.257812 40.878906 "/>
<path style=" stroke:none;fill-rule:nonzero;fill:rgb(0%,0%,0%);fill-opacity:1;" d="M 39.832031 188.046875 C 39.335938 189.996094 39.027344 193.265625 38.914062 197.855469 C 38.914062 198.757812 38.507812 199.207031 37.691406 199.207031 C 36.875 199.207031 36.304688 198.816406 35.984375 198.03125 C 35.109375 195.910156 34.28125 194.429688 33.492188 193.582031 C 32.558594 192.597656 31.320312 192 29.773438 191.796875 C 28.113281 191.535156 23.976562 191.40625 17.359375 191.40625 C 15.84375 191.40625 14.851562 191.566406 14.386719 191.886719 C 14.09375 192.089844 13.949219 192.523438 13.949219 193.195312 L 13.949219 212.941406 C 13.949219 213.609375 14.371094 213.925781 15.214844 213.898438 C 17.8125 213.871094 21.570312 213.695312 26.496094 213.375 C 27.457031 213.257812 28.105469 212.945312 28.441406 212.4375 C 28.777344 211.929688 29.105469 210.617188 29.425781 208.492188 C 29.628906 207.332031 30.316406 206.878906 31.480469 207.144531 C 32.472656 207.347656 32.894531 207.796875 32.75 208.492188 C 31.933594 212.445312 31.667969 217.589844 31.960938 223.925781 C 31.992188 224.679688 31.511719 225.085938 30.519531 225.144531 C 29.703125 225.234375 29.191406 224.796875 28.988281 223.835938 C 28.230469 220.207031 26.824219 218.265625 24.769531 218.015625 C 22.714844 217.769531 19.367188 217.648438 14.734375 217.648438 C 14.210938 217.648438 13.949219 217.835938 13.949219 218.214844 L 13.949219 237.828125 C 13.949219 239.28125 14.484375 240.273438 15.5625 240.792969 C 16.410156 241.230469 18.234375 241.621094 21.03125 241.972656 C 22.460938 242.117188 23.085938 242.742188 22.914062 243.84375 C 22.734375 244.804688 21.453125 245.183594 19.0625 244.980469 C 12.152344 244.425781 6.453125 244.457031 1.96875 245.066406 C 0.710938 245.238281 0.0859375 244.730469 0.0859375 243.542969 C 0.0859375 242.785156 0.710938 242.347656 1.96875 242.234375 C 4.824219 241.914062 6.25 239.414062 6.25 234.734375 L 6.25 197.417969 C 6.25 195.503906 5.90625 194.027344 5.226562 192.996094 C 4.539062 191.964844 3.261719 191.027344 1.398438 190.183594 C 0.234375 189.660156 -0.203125 188.949219 0.0859375 188.046875 C 0.234375 187.496094 0.46875 187.191406 0.785156 187.132812 C 1.078125 187.046875 1.851562 187.101562 3.101562 187.308594 C 4.941406 187.597656 9.269531 187.746094 16.089844 187.746094 C 24.136719 187.746094 31.085938 187.570312 36.945312 187.222656 C 38.898438 187.101562 39.875 187.261719 39.875 187.699219 C 39.875 187.816406 39.863281 187.933594 39.832031 188.046875 Z M 39.832031 188.046875 "/>
<path style=" stroke:none;fill-rule:nonzero;fill:rgb(0%,0%,0%);fill-opacity:1;" d="M 68.1875 243.382812 C 68.1875 244.546875 67.53125 245.054688 66.21875 244.910156 C 62.199219 244.53125 57.214844 244.589844 51.265625 245.082031 C 50.070312 245.199219 49.335938 245.171875 49.058594 245 C 48.78125 244.824219 48.644531 244.34375 48.644531 243.558594 C 48.644531 242.859375 49.4375 242.273438 51.023438 241.792969 C 52.617188 241.3125 53.40625 239.882812 53.40625 237.5 L 53.40625 198.050781 C 53.40625 195.695312 53.066406 193.964844 52.382812 192.859375 C 51.695312 191.753906 50.492188 190.898438 48.773438 190.289062 C 47.871094 189.96875 47.417969 189.519531 47.417969 188.9375 C 47.417969 188.066406 48.074219 187.410156 49.382812 186.976562 C 51.367188 186.335938 53.421875 185.351562 55.550781 184.011719 C 57.300781 182.964844 58.410156 182.445312 58.875 182.445312 C 59.953125 182.445312 60.492188 183.183594 60.492188 184.664062 C 60.492188 184.550781 60.433594 186.003906 60.316406 189.023438 C 60.230469 191.902344 60.199219 194.734375 60.230469 197.523438 L 60.402344 236.453125 C 60.402344 238.226562 60.839844 239.511719 61.714844 240.3125 C 62.589844 241.109375 64.09375 241.640625 66.21875 241.902344 C 67.53125 242.046875 68.1875 242.539062 68.1875 243.382812 Z M 68.1875 243.382812 "/>
<path style=" stroke:none;fill-rule:nonzero;fill:rgb(0%,0%,0%);fill-opacity:1;" d="M 107.734375 240.8125 C 107.734375 241.425781 106.617188 242.347656 104.390625 243.582031 C 102.15625 244.816406 100.371094 245.433594 99.03125 245.433594 C 97.894531 245.433594 96.890625 244.882812 96.015625 243.777344 C 95.140625 242.671875 94.527344 242.121094 94.179688 242.121094 C 93.917969 242.121094 92.53125 242.71875 90.023438 243.90625 C 87.519531 245.101562 84.996094 245.695312 82.460938 245.695312 C 80.070312 245.695312 78.074219 245 76.46875 243.605469 C 74.71875 242.0625 73.847656 239.972656 73.847656 237.328125 C 73.847656 232.300781 79.617188 228.695312 91.164062 226.515625 C 93.140625 226.136719 94.152344 225.339844 94.179688 224.117188 L 94.265625 221.328125 C 94.441406 216.5625 92.328125 214.179688 87.925781 214.179688 C 86.671875 214.179688 85.484375 215.296875 84.359375 217.535156 C 83.242188 219.777344 81.628906 220.980469 79.53125 221.15625 C 77.140625 221.386719 75.945312 220.382812 75.945312 218.144531 C 75.945312 216.75 77.722656 215.125 81.277344 213.261719 C 85.011719 211.316406 88.597656 210.34375 92.039062 210.34375 C 97.953125 210.34375 100.882812 213.148438 100.824219 218.757812 L 100.648438 236.714844 C 100.621094 238.605469 101.421875 239.546875 103.054688 239.546875 C 103.375 239.546875 103.988281 239.476562 104.890625 239.332031 C 105.796875 239.1875 106.320312 239.113281 106.464844 239.113281 C 107.3125 239.113281 107.734375 239.683594 107.734375 240.8125 Z M 94.265625 230.875 C 94.296875 230.148438 94.125 229.667969 93.761719 229.4375 C 93.398438 229.207031 92.824219 229.160156 92.039062 229.304688 C 85.011719 230.554688 81.5 232.835938 81.5 236.148438 C 81.5 239.492188 83.320312 241.164062 86.964844 241.164062 C 88.421875 241.164062 89.925781 240.886719 91.464844 240.335938 C 93.277344 239.695312 94.179688 238.925781 94.179688 238.023438 Z M 94.265625 230.875 "/>
<path style=" stroke:none;fill-rule:nonzero;fill:rgb(0%,0%,0%);fill-opacity:1;" d="M 140.242188 235.796875 C 140.242188 238.878906 139.050781 241.328125 136.675781 243.144531 C 134.300781 244.960938 131.058594 245.871094 126.945312 245.871094 C 124.207031 245.871094 121.464844 245.578125 118.726562 245 C 116.363281 244.472656 114.996094 243.996094 114.617188 243.558594 C 114.382812 243.152344 114.265625 241.164062 114.265625 237.585938 C 114.265625 236.046875 114.617188 235.246094 115.316406 235.191406 C 116.015625 235.101562 116.613281 235.480469 117.109375 236.324219 C 119.296875 240.128906 122.824219 242.035156 127.691406 242.035156 C 131.800781 242.035156 133.855469 240.609375 133.855469 237.761719 C 133.855469 236.511719 133.390625 235.464844 132.457031 234.625 C 131.433594 233.664062 129.457031 232.542969 126.511719 231.265625 C 122.253906 229.378906 119.410156 227.722656 117.984375 226.296875 C 116.4375 224.785156 115.667969 222.75 115.667969 220.191406 C 115.667969 217.054688 116.875 214.613281 119.296875 212.871094 C 121.539062 211.183594 124.542969 210.34375 128.300781 210.34375 C 130.664062 210.34375 132.820312 210.53125 134.773438 210.910156 C 136.875 211.289062 137.964844 211.75 138.054688 212.304688 C 138.285156 213.929688 138.769531 216.285156 139.496094 219.367188 C 139.585938 219.742188 139.175781 220.046875 138.273438 220.28125 C 137.308594 220.484375 136.667969 220.324219 136.347656 219.800781 C 134.046875 216.050781 131.132812 214.179688 127.601562 214.179688 C 123.609375 214.179688 121.613281 215.457031 121.613281 218.015625 C 121.613281 219.4375 122.152344 220.570312 123.230469 221.414062 C 124.191406 222.140625 126.453125 223.273438 130.007812 224.816406 C 133.738281 226.414062 136.273438 227.851562 137.617188 229.128906 C 139.367188 230.785156 140.242188 233.011719 140.242188 235.796875 Z M 140.242188 235.796875 "/>
<path style=" stroke:none;fill-rule:nonzero;fill:rgb(0%,0%,0%);fill-opacity:1;" d="M 191.679688 243.425781 C 191.679688 244.445312 190.996094 244.984375 189.625 245.039062 C 187.585938 245.070312 184.914062 245.214844 181.625 245.476562 C 179.992188 245.796875 178.824219 245.59375 178.125 244.867188 C 173.519531 239.925781 169.613281 234.753906 166.40625 229.347656 C 166.144531 228.882812 165.808594 228.652344 165.402344 228.652344 C 164.90625 228.652344 164.046875 229.085938 162.824219 229.960938 C 161.449219 230.714844 160.765625 231.789062 160.765625 233.183594 C 160.765625 234.171875 160.792969 235.59375 160.855469 237.457031 C 160.914062 239.316406 161.378906 240.535156 162.25 241.117188 C 162.863281 241.527344 164.28125 241.84375 166.492188 242.078125 C 167.863281 242.253906 168.550781 242.761719 168.550781 243.601562 C 168.550781 244.273438 168.441406 244.6875 168.222656 244.84375 C 168.003906 245.003906 167.425781 245.039062 166.492188 244.953125 C 163.578125 244.691406 158.652344 244.835938 151.714844 245.390625 C 149.964844 245.535156 149.019531 245.316406 148.875 244.734375 C 148.816406 244.53125 148.785156 244.242188 148.785156 243.863281 C 148.785156 242.964844 149.675781 242.28125 151.453125 241.816406 C 153.058594 241.40625 153.859375 239.535156 153.859375 236.191406 L 153.859375 198.09375 C 153.859375 195.710938 153.625 194.054688 153.15625 193.125 C 152.515625 191.933594 151.175781 191 149.132812 190.332031 C 148.175781 190.015625 147.691406 189.5625 147.691406 188.984375 C 147.691406 188.136719 148.378906 187.484375 149.746094 187.023438 C 151.933594 186.292969 154.015625 185.292969 156 184.011719 C 157.601562 182.96875 158.597656 182.445312 158.972656 182.445312 C 160.167969 182.445312 160.765625 183.199219 160.765625 184.710938 C 160.765625 184.507812 160.753906 185.945312 160.722656 189.027344 C 160.695312 191.148438 160.679688 193.996094 160.679688 197.570312 L 160.765625 224.859375 C 160.765625 225.613281 160.96875 225.992188 161.378906 225.992188 C 161.816406 225.992188 162.484375 225.613281 163.390625 224.859375 C 165.808594 222.96875 168.785156 220.5 172.308594 217.449219 C 173.011719 216.722656 173.359375 216.140625 173.359375 215.703125 C 173.359375 214.921875 172.179688 214.367188 169.820312 214.046875 C 168.796875 213.929688 168.316406 213.363281 168.375 212.347656 C 168.460938 211.328125 168.972656 210.894531 169.902344 211.039062 C 172.003906 211.328125 175.066406 211.492188 179.085938 211.519531 C 181.886719 211.546875 184.667969 211.5625 187.4375 211.5625 C 188.339844 211.59375 188.792969 212.128906 188.792969 213.175781 C 188.792969 214.164062 188.078125 214.703125 186.652344 214.789062 C 184.40625 214.875 182.292969 215.382812 180.3125 216.316406 C 177.542969 217.5625 174.582031 219.757812 171.433594 222.898438 C 171.203125 223.070312 171.085938 223.289062 171.085938 223.550781 C 171.085938 223.957031 171.578125 224.929688 172.574219 226.472656 C 176.214844 231.992188 179.65625 236.160156 182.890625 238.984375 C 184.960938 240.753906 186.898438 241.640625 188.703125 241.640625 C 190.046875 241.640625 190.878906 241.734375 191.199219 241.925781 C 191.519531 242.113281 191.679688 242.617188 191.679688 243.425781 Z M 191.679688 243.425781 "/>
</g>
</svg>
