<?xml version="1.0" encoding="UTF-8"?>
<svg xmlns="http://www.w3.org/2000/svg" xmlns:xlink="http://www.w3.org/1999/xlink" width="px" height="0px" viewBox="0 0 192 192" version="1.1">
<g id="surface1">
<path style=" stroke:none;fill-rule:nonzero;fill:rgb(87.058824%,29.803922%,21.176471%);fill-opacity:1;" d="M 188.378906 87.445312 L 104.550781 3.621094 C 99.726562 -1.207031 91.894531 -1.207031 87.0625 3.621094 L 69.65625 21.027344 L 91.738281 43.109375 C 96.871094 41.375 102.753906 42.539062 106.84375 46.628906 C 110.957031 50.746094 112.109375 56.683594 110.332031 61.832031 L 131.617188 83.113281 C 136.765625 81.339844 142.703125 82.484375 146.816406 86.605469 C 152.5625 92.347656 152.5625 101.660156 146.816406 107.410156 C 141.066406 113.160156 131.757812 113.160156 126.003906 107.410156 C 121.683594 103.082031 120.613281 96.734375 122.804688 91.40625 L 102.957031 71.5625 L 102.953125 123.789062 C 104.355469 124.484375 105.679688 125.410156 106.84375 126.570312 C 112.59375 132.316406 112.59375 141.628906 106.84375 147.382812 C 101.097656 153.128906 91.78125 153.128906 86.039062 147.382812 C 80.292969 141.628906 80.292969 132.316406 86.039062 126.570312 C 87.460938 125.152344 89.101562 124.082031 90.855469 123.363281 L 90.855469 70.648438 C 89.101562 69.929688 87.460938 68.863281 86.039062 67.4375 C 81.683594 63.089844 80.636719 56.699219 82.871094 51.351562 L 61.105469 29.582031 L 3.625 87.058594 C -1.207031 91.890625 -1.207031 99.71875 3.625 104.550781 L 87.453125 188.375 C 92.28125 193.203125 100.109375 193.203125 104.941406 188.375 L 188.378906 104.9375 C 193.207031 100.109375 193.207031 92.273438 188.378906 87.445312 "/>
</g>
</svg>
