<?xml version="1.0" encoding="UTF-8"?>
<svg xmlns="http://www.w3.org/2000/svg" xmlns:xlink="http://www.w3.org/1999/xlink" width="px" height="0px" viewBox="0 0 192 188" version="1.1">
<g id="surface1">
<path style=" stroke:none;fill-rule:nonzero;fill:rgb(8.627451%,8.627451%,7.843137%);fill-opacity:1;" d="M 96 0 C 42.988281 0 0 43.09375 0 96.257812 C 0 138.785156 27.507812 174.867188 65.652344 187.59375 C 70.449219 188.484375 72.210938 185.507812 72.210938 182.964844 C 72.210938 180.667969 72.121094 173.085938 72.082031 165.042969 C 45.371094 170.867188 39.738281 153.6875 39.738281 153.6875 C 35.371094 142.558594 29.078125 139.601562 29.078125 139.601562 C 20.367188 133.628906 29.734375 133.75 29.734375 133.75 C 39.375 134.429688 44.449219 143.667969 44.449219 143.667969 C 53.011719 158.386719 66.910156 154.128906 72.386719 151.671875 C 73.25 145.449219 75.738281 141.203125 78.480469 138.800781 C 57.160156 136.367188 34.742188 128.113281 34.742188 91.230469 C 34.742188 80.71875 38.492188 72.132812 44.636719 65.394531 C 43.636719 62.96875 40.351562 53.179688 45.566406 39.917969 C 45.566406 39.917969 53.625 37.332031 71.972656 49.785156 C 79.628906 47.652344 87.84375 46.582031 96 46.546875 C 104.160156 46.582031 112.378906 47.652344 120.050781 49.785156 C 138.375 37.332031 146.425781 39.917969 146.425781 39.917969 C 151.648438 53.179688 148.363281 62.96875 147.363281 65.394531 C 153.519531 72.132812 157.246094 80.71875 157.246094 91.230469 C 157.246094 128.199219 134.785156 136.339844 113.410156 138.722656 C 116.851562 141.710938 119.921875 147.566406 119.921875 156.546875 C 119.921875 169.429688 119.808594 179.792969 119.808594 182.964844 C 119.808594 185.527344 121.539062 188.527344 126.40625 187.582031 C 164.527344 174.839844 192 138.769531 192 96.257812 C 192 43.09375 149.019531 0 96 0 Z M 35.957031 137.121094 C 35.742188 137.597656 34.992188 137.742188 34.308594 137.414062 C 33.613281 137.097656 33.222656 136.445312 33.449219 135.96875 C 33.65625 135.476562 34.40625 135.335938 35.101562 135.667969 C 35.800781 135.980469 36.195312 136.640625 35.957031 137.121094 Z M 40.675781 141.34375 C 40.21875 141.769531 39.324219 141.574219 38.71875 140.898438 C 38.089844 140.230469 37.972656 139.332031 38.4375 138.898438 C 38.910156 138.472656 39.777344 138.671875 40.40625 139.34375 C 41.035156 140.023438 41.15625 140.914062 40.675781 141.34375 Z M 43.917969 146.75 C 43.328125 147.160156 42.367188 146.777344 41.773438 145.917969 C 41.183594 145.0625 41.183594 144.039062 41.785156 143.625 C 42.382812 143.214844 43.328125 143.585938 43.929688 144.433594 C 44.519531 145.304688 44.519531 146.332031 43.917969 146.75 Z M 49.394531 153.011719 C 48.871094 153.59375 47.75 153.4375 46.929688 152.640625 C 46.089844 151.867188 45.855469 150.765625 46.382812 150.183594 C 46.917969 149.597656 48.042969 149.761719 48.871094 150.550781 C 49.703125 151.324219 49.957031 152.433594 49.394531 153.011719 Z M 56.476562 155.125 C 56.246094 155.878906 55.164062 156.21875 54.078125 155.898438 C 52.992188 155.570312 52.28125 154.6875 52.5 153.925781 C 52.726562 153.167969 53.8125 152.808594 54.90625 153.152344 C 55.992188 153.480469 56.703125 154.355469 56.476562 155.125 Z M 64.535156 156.019531 C 64.5625 156.8125 63.640625 157.472656 62.5 157.488281 C 61.351562 157.511719 60.421875 156.871094 60.410156 156.089844 C 60.410156 155.285156 61.3125 154.636719 62.460938 154.617188 C 63.601562 154.59375 64.535156 155.230469 64.535156 156.019531 Z M 72.453125 155.714844 C 72.589844 156.492188 71.796875 157.285156 70.660156 157.496094 C 69.546875 157.703125 68.515625 157.222656 68.375 156.457031 C 68.234375 155.660156 69.042969 154.867188 70.15625 154.660156 C 71.292969 154.464844 72.308594 154.929688 72.453125 155.714844 Z M 72.453125 155.714844 "/>
</g>
</svg>
