<?xml version="1.0" encoding="UTF-8"?>
<svg xmlns="http://www.w3.org/2000/svg" xmlns:xlink="http://www.w3.org/1999/xlink" width="px" height="0px" viewBox="0 0 192 270" version="1.1">
<g id="surface1">
<path style=" stroke:none;fill-rule:nonzero;fill:rgb(89.411765%,30.196078%,14.901961%);fill-opacity:1;" d="M 191.667969 52.925781 L 174.234375 247.65625 L 95.882812 269.316406 L 17.746094 247.6875 L 0.332031 52.925781 Z M 191.667969 52.925781 "/>
<path style=" stroke:none;fill-rule:nonzero;fill:rgb(94.509804%,39.607843%,16.078431%);fill-opacity:1;" d="M 96 252.761719 L 159.3125 235.257812 L 174.207031 68.851562 L 96 68.851562 Z M 96 252.761719 "/>
<path style=" stroke:none;fill-rule:nonzero;fill:rgb(92.156863%,92.156863%,92.156863%);fill-opacity:1;" d="M 62.113281 116.625 L 96 116.625 L 96 92.738281 L 35.9375 92.738281 L 36.511719 99.148438 L 42.398438 164.972656 L 96 164.972656 L 96 141.085938 L 64.304688 141.085938 Z M 62.113281 116.625 "/>
<path style=" stroke:none;fill-rule:nonzero;fill:rgb(92.156863%,92.156863%,92.156863%);fill-opacity:1;" d="M 67.511719 176.914062 L 43.46875 176.914062 L 46.824219 214.421875 L 95.890625 228.003906 L 96 227.972656 L 96 203.121094 L 95.894531 203.148438 L 69.21875 195.964844 Z M 67.511719 176.914062 "/>
<path style=" stroke:none;fill-rule:nonzero;fill:rgb(0%,0%,0%);fill-opacity:1;" d="M 18.136719 0 L 30.308594 0 L 30.308594 11.992188 L 41.441406 11.992188 L 41.441406 0 L 53.617188 0 L 53.617188 36.316406 L 41.445312 36.316406 L 41.445312 24.15625 L 30.308594 24.15625 L 30.308594 36.316406 L 18.136719 36.316406 Z M 18.136719 0 "/>
<path style=" stroke:none;fill-rule:nonzero;fill:rgb(0%,0%,0%);fill-opacity:1;" d="M 69.625 12.042969 L 58.90625 12.042969 L 58.90625 0 L 92.519531 0 L 92.519531 12.042969 L 81.796875 12.042969 L 81.796875 36.316406 L 69.625 36.316406 Z M 69.625 12.042969 "/>
<path style=" stroke:none;fill-rule:nonzero;fill:rgb(0%,0%,0%);fill-opacity:1;" d="M 97.851562 0 L 110.542969 0 L 118.351562 12.761719 L 126.152344 0 L 138.847656 0 L 138.847656 36.316406 L 126.726562 36.316406 L 126.726562 18.316406 L 118.351562 31.230469 L 118.144531 31.230469 L 109.761719 18.316406 L 109.761719 36.316406 L 97.851562 36.316406 Z M 97.851562 0 "/>
<path style=" stroke:none;fill-rule:nonzero;fill:rgb(0%,0%,0%);fill-opacity:1;" d="M 144.90625 0 L 157.082031 0 L 157.082031 24.3125 L 174.203125 24.3125 L 174.203125 36.316406 L 144.90625 36.316406 Z M 144.90625 0 "/>
<path style=" stroke:none;fill-rule:nonzero;fill:rgb(100%,100%,100%);fill-opacity:1;" d="M 95.917969 164.972656 L 125.414062 164.972656 L 122.632812 195.949219 L 95.917969 203.140625 L 95.917969 227.992188 L 145.023438 214.421875 L 145.382812 210.382812 L 151.011719 147.5 L 151.59375 141.085938 L 95.917969 141.085938 Z M 95.917969 164.972656 "/>
<path style=" stroke:none;fill-rule:nonzero;fill:rgb(100%,100%,100%);fill-opacity:1;" d="M 95.917969 116.566406 L 95.917969 116.625 L 153.773438 116.625 L 154.253906 111.257812 L 155.347656 99.148438 L 155.917969 92.738281 L 95.917969 92.738281 Z M 95.917969 116.566406 "/>
</g>
</svg>
