<?xml version="1.0" encoding="UTF-8"?>
<svg xmlns="http://www.w3.org/2000/svg" xmlns:xlink="http://www.w3.org/1999/xlink" width="px" height="0px" viewBox="0 0 192 192" version="1.1">
<g id="surface1">
<rect x="0" y="0" width="192" height="192" style="fill:rgb(96.862745%,87.45098%,11.764706%);fill-opacity:1;stroke:none;"/>
<path style=" stroke:none;fill-rule:nonzero;fill:rgb(0%,0%,0%);fill-opacity:1;" d="M 50.484375 160.449219 L 65.175781 151.558594 C 68.011719 156.582031 70.589844 160.835938 76.773438 160.835938 C 82.703125 160.835938 86.441406 158.515625 86.441406 149.496094 L 86.441406 88.148438 L 104.484375 88.148438 L 104.484375 149.75 C 104.484375 168.4375 93.53125 176.945312 77.546875 176.945312 C 63.113281 176.945312 54.738281 169.46875 50.484375 160.449219 "/>
<path style=" stroke:none;fill-rule:nonzero;fill:rgb(0%,0%,0%);fill-opacity:1;" d="M 114.285156 158.515625 L 128.976562 150.007812 C 132.84375 156.324219 137.871094 160.964844 146.761719 160.964844 C 154.238281 160.964844 159.007812 157.226562 159.007812 152.070312 C 159.007812 145.886719 154.109375 143.695312 145.859375 140.085938 L 141.351562 138.152344 C 128.332031 132.609375 119.699219 125.652344 119.699219 110.957031 C 119.699219 97.425781 130.007812 87.113281 146.121094 87.113281 C 157.589844 87.113281 165.839844 91.109375 171.765625 101.550781 L 157.71875 110.570312 C 154.625 105.03125 151.273438 102.839844 146.121094 102.839844 C 140.835938 102.839844 137.484375 106.191406 137.484375 110.570312 C 137.484375 115.984375 140.835938 118.175781 148.566406 121.527344 L 153.078125 123.460938 C 168.414062 130.035156 177.050781 136.734375 177.050781 151.8125 C 177.050781 168.054688 164.292969 176.945312 147.148438 176.945312 C 130.394531 176.945312 119.570312 168.957031 114.285156 158.515625 "/>
</g>
</svg>
