<?xml version="1.0" encoding="UTF-8"?>
<svg xmlns="http://www.w3.org/2000/svg" xmlns:xlink="http://www.w3.org/1999/xlink" width="px" height="0px" viewBox="0 0 384 262" version="1.1">
<g id="surface1">
<path style=" stroke:none;fill-rule:nonzero;fill:rgb(0%,45.882353%,56.078431%);fill-opacity:1;" d="M 114.230469 172.886719 L 125.902344 210.789062 C 128.523438 219.394531 129.617188 225.402344 129.179688 228.824219 C 135.5625 211.714844 140.023438 193.070312 142.558594 172.886719 L 156.589844 172.886719 C 150.558594 205.742188 142.601562 229.621094 132.722656 244.515625 C 125.023438 255.992188 116.59375 261.730469 107.410156 261.730469 C 104.964844 261.730469 101.945312 260.988281 98.363281 259.519531 L 98.363281 251.597656 C 100.113281 251.855469 102.167969 251.992188 104.527344 251.992188 C 108.8125 251.992188 112.265625 250.804688 114.890625 248.433594 C 118.035156 245.542969 119.609375 242.296875 119.609375 238.699219 C 119.609375 236.238281 118.382812 231.195312 115.9375 223.566406 L 99.675781 172.886719 Z M 24.917969 149.59375 L 46.292969 214.871094 L 46.425781 214.871094 L 67.929688 149.59375 L 85.503906 149.59375 C 89.351562 181.964844 91.621094 211.585938 92.320312 238.4375 L 77.507812 238.4375 C 76.984375 213.335938 75.539062 189.738281 73.179688 167.628906 L 73.050781 167.628906 L 50.492188 238.4375 L 39.210938 238.4375 L 16.789062 167.628906 L 16.65625 167.628906 C 14.992188 188.859375 13.945312 212.460938 13.507812 238.4375 L 0 238.4375 C 0.871094 206.847656 3.058594 177.234375 6.554688 149.59375 Z M 24.917969 149.59375 "/>
<path style=" stroke:none;fill-rule:nonzero;fill:rgb(94.901961%,56.862745%,6.666667%);fill-opacity:1;" d="M 264.375 148.273438 C 287.367188 148.273438 298.863281 162.976562 298.863281 192.371094 C 298.863281 208.34375 295.40625 220.40625 288.496094 228.558594 C 287.25 230.046875 285.875 231.332031 284.425781 232.527344 L 300.699219 240.578125 L 300.683594 240.578125 L 294.90625 250.5625 L 273.714844 238.1875 C 270.203125 239.230469 266.339844 239.75 262.128906 239.75 C 250.835938 239.75 242.40625 236.457031 236.828125 229.878906 C 230.707031 222.601562 227.652344 211.144531 227.652344 195.527344 C 227.652344 179.644531 231.101562 167.625 238.011719 159.464844 C 244.304688 152 253.09375 148.273438 264.375 148.273438 Z M 193.964844 148.402344 C 202.179688 148.402344 209.652344 150.605469 216.382812 154.992188 L 212.964844 162.617188 C 207.207031 160.164062 201.527344 158.933594 195.929688 158.933594 C 191.386719 158.933594 187.882812 160.03125 185.445312 162.230469 C 182.988281 164.414062 181.472656 167.226562 181.472656 170.648438 C 181.472656 175.910156 185.21875 180.476562 192.132812 184.332031 C 193.992188 185.34375 196.417969 186.695312 198.90625 188.09375 L 199.421875 188.382812 C 199.507812 188.429688 199.59375 188.480469 199.679688 188.527344 L 200.199219 188.820312 C 200.285156 188.867188 200.371094 188.917969 200.457031 188.964844 L 200.972656 189.257812 C 206.207031 192.210938 211.132812 195.03125 211.132812 195.03125 C 218.046875 199.945312 221.496094 205.183594 221.496094 213.808594 C 221.496094 221.34375 218.734375 227.53125 213.238281 232.371094 C 207.734375 237.1875 200.339844 239.605469 191.082031 239.605469 C 182.425781 239.605469 174.03125 236.824219 165.902344 231.308594 L 169.707031 223.675781 C 176.703125 227.1875 183.03125 228.9375 188.714844 228.9375 C 194.046875 228.9375 198.222656 227.746094 201.238281 225.394531 C 204.25 223.023438 206.058594 219.71875 206.058594 215.527344 C 206.058594 210.253906 202.390625 205.742188 195.664062 201.960938 C 193.917969 201 191.683594 199.742188 189.371094 198.433594 L 188.855469 198.144531 C 187.910156 197.605469 186.953125 197.066406 186.019531 196.535156 L 185.515625 196.246094 C 180.972656 193.660156 177.046875 191.402344 177.046875 191.402344 C 170.324219 186.480469 166.953125 181.199219 166.953125 172.496094 C 166.953125 165.296875 169.46875 159.480469 174.488281 155.054688 C 179.519531 150.621094 186.011719 148.402344 193.964844 148.402344 Z M 325.882812 149.59375 L 325.882812 227.507812 L 353.8125 227.507812 L 353.8125 238.4375 L 311.71875 238.4375 L 311.71875 149.59375 Z M 369.332031 227.542969 L 369.332031 229.386719 L 366.261719 229.386719 L 366.261719 238.425781 L 363.914062 238.425781 L 363.914062 229.386719 L 360.722656 229.386719 L 360.722656 227.542969 Z M 375.003906 227.542969 L 377.949219 234.960938 L 380.660156 227.542969 L 383.984375 227.542969 L 383.984375 238.425781 L 381.773438 238.425781 L 381.773438 230.140625 L 378.691406 238.425781 L 377.097656 238.425781 L 374.007812 230.140625 L 373.890625 230.140625 L 373.890625 238.425781 L 371.796875 238.425781 L 371.796875 227.542969 Z M 262.925781 159.199219 C 249.378906 159.199219 242.597656 170.394531 242.597656 192.765625 C 242.597656 205.578125 244.394531 214.871094 247.980469 220.664062 C 251.300781 226.023438 256.503906 228.699219 263.585938 228.699219 C 277.132812 228.699219 283.914062 217.417969 283.914062 194.867188 C 283.914062 182.230469 282.117188 173.019531 278.535156 167.226562 C 275.210938 161.875 270.011719 159.199219 262.925781 159.199219 Z M 262.925781 159.199219 "/>
<path style=" stroke:none;fill-rule:nonzero;fill:rgb(0%,45.882353%,56.078431%);fill-opacity:1;" d="M 227.414062 5.503906 C 231.910156 -5.550781 247.625 2.820312 253.722656 6.683594 C 255.21875 7.648438 256.933594 9.691406 258.644531 10.445312 C 261.320312 10.550781 263.992188 10.761719 266.671875 10.871094 C 271.691406 12.054688 276.398438 13.019531 280.355469 15.277344 C 298.753906 26.121094 310.730469 37.171875 321.75 55.421875 C 324.105469 59.289062 325.28125 63.472656 327.207031 67.65625 C 329.875 73.894531 332.875 80.4375 335.972656 86.335938 C 337.363281 89.132812 338.4375 92.242188 340.363281 94.601562 C 341.113281 95.679688 343.25 96 344.527344 96.644531 C 348.058594 98.472656 352.335938 99.863281 355.65625 102.011719 C 361.859375 105.878906 367.855469 110.492188 373.308594 115.214844 C 375.339844 117.039062 376.722656 119.617188 378.660156 121.546875 L 378.660156 122.519531 C 376.941406 123.046875 375.230469 123.585938 373.515625 124.019531 C 369.773438 124.984375 366.457031 124.765625 362.824219 125.726562 C 360.582031 126.378906 357.792969 127.238281 355.441406 127.457031 C 355.546875 127.5625 355.65625 127.675781 355.65625 127.675781 C 357.042969 131.636719 364.535156 134.855469 367.960938 137.226562 C 372.121094 140.230469 375.976562 143.878906 379.078125 148.0625 C 380.152344 149.132812 381.222656 150.105469 382.289062 151.167969 C 383.035156 152.25 383.246094 153.644531 384 154.609375 L 384 154.933594 C 383.164062 154.636719 382.5625 154.074219 381.996094 153.488281 L 381.65625 153.132812 C 381.316406 152.777344 380.972656 152.433594 380.582031 152.144531 C 378.21875 150.53125 375.875 148.601562 373.515625 147.101562 C 369.457031 144.523438 364.75 143.027344 360.582031 140.4375 C 358.222656 138.9375 355.976562 137.226562 353.730469 135.507812 C 351.695312 134 349.453125 131.105469 348.171875 128.960938 C 347.417969 127.773438 347.316406 126.378906 346.453125 125.523438 C 346.609375 124.089844 347.921875 123.664062 349.242188 123.3125 L 349.550781 123.234375 C 350.003906 123.113281 350.453125 122.996094 350.84375 122.839844 C 356.402344 120.476562 363.03125 119.617188 371.59375 119.832031 C 371.269531 117.679688 365.921875 115 364.214844 113.710938 C 360.785156 111.238281 357.15625 108.660156 353.519531 106.410156 C 351.59375 105.230469 348.273438 104.367188 346.140625 103.40625 C 343.25 102.222656 336.832031 101.042969 335.230469 98.792969 C 332.511719 95.246094 330.558594 91.011719 328.664062 86.738281 L 328.148438 85.570312 C 327.976562 85.183594 327.804688 84.792969 327.628906 84.40625 C 325.390625 79.257812 322.605469 73.890625 320.359375 68.621094 C 319.183594 66.050781 318.644531 63.792969 317.359375 61.328125 C 309.554688 46.195312 298 33.523438 283.996094 24.613281 C 279.390625 21.714844 274.257812 19.03125 268.59375 17.207031 C 265.382812 16.238281 261.53125 16.773438 258.109375 16.027344 L 255.859375 16.027344 C 253.9375 15.488281 252.332031 13.449219 250.832031 12.371094 C 247.523438 10.121094 244.207031 8.613281 240.246094 7.007812 C 238.859375 6.363281 234.894531 4.863281 233.511719 6.042969 C 232.65625 6.257812 232.222656 6.582031 232.011719 7.441406 C 231.160156 8.726562 231.910156 10.660156 232.4375 11.84375 C 234.046875 15.273438 236.289062 17.3125 238.324219 20.210938 C 240.136719 22.785156 242.390625 25.683594 243.671875 28.476562 C 246.445312 34.488281 247.738281 41.144531 250.304688 47.15625 C 251.257812 49.414062 252.765625 51.984375 254.152344 54.023438 C 255.324219 55.640625 257.460938 56.8125 258.109375 58.859375 C 259.398438 61.007812 256.179688 68.089844 255.4375 70.339844 C 252.648438 79.144531 253.1875 91.382812 256.398438 99.011719 C 256.453125 99.144531 256.511719 99.28125 256.570312 99.414062 L 256.738281 99.824219 C 257.910156 102.617188 259.164062 105.628906 262.28125 106.410156 C 262.496094 106.195312 262.28125 106.308594 262.707031 106.195312 C 263.460938 100.289062 263.671875 94.601562 265.707031 89.980469 C 266.878906 87.089844 269.226562 85.046875 270.835938 82.6875 C 271.90625 83.332031 271.90625 85.269531 272.546875 86.550781 C 273.941406 89.875 275.433594 93.523438 277.152344 96.859375 C 280.671875 103.726562 284.636719 110.386719 289.125 116.394531 C 290.628906 118.542969 292.765625 120.902344 294.6875 122.835938 C 295.546875 123.585938 296.503906 124.019531 297.148438 124.980469 L 297.359375 124.980469 L 297.359375 125.304688 C 294.152344 124.121094 292.117188 120.800781 289.558594 118.859375 C 284.738281 115.214844 278.96875 109.738281 275.648438 104.484375 C 274.257812 101.46875 272.757812 98.574219 271.261719 95.574219 L 271.261719 95.359375 C 270.621094 96.214844 270.835938 97.066406 270.515625 98.363281 C 269.125 103.726562 270.195312 109.847656 265.382812 111.777344 C 259.929688 114.035156 255.859375 108.128906 254.152344 105.445312 C 248.695312 96.539062 247.199219 81.511719 251.046875 69.378906 C 251.902344 66.695312 252.019531 63.472656 253.511719 61.328125 C 253.1875 59.390625 251.695312 58.859375 250.832031 57.671875 C 249.335938 55.644531 248.054688 53.277344 246.882812 51.023438 C 244.628906 46.621094 243.027344 41.359375 241.320312 36.636719 C 240.566406 34.707031 240.351562 32.769531 239.601562 30.945312 C 238.324219 28.160156 235.96875 25.363281 234.152344 22.898438 C 231.691406 19.355469 224.523438 12.488281 227.414062 5.503906 Z M 262.492188 26.535156 C 262.777344 26.824219 263.125 27.074219 263.480469 27.320312 L 263.910156 27.617188 C 264.484375 28.015625 265.039062 28.433594 265.382812 29.003906 C 265.921875 29.757812 266.019531 30.503906 266.667969 31.261719 C 266.667969 33.839844 265.921875 35.558594 264.414062 36.625 C 264.414062 36.625 264.308594 36.738281 264.203125 36.84375 C 263.347656 35.125 262.601562 33.414062 261.738281 31.695312 C 260.679688 30.195312 259.179688 29.003906 258.316406 27.289062 L 258.105469 27.289062 L 258.105469 27.074219 C 259.398438 26.757812 260.679688 26.535156 262.492188 26.535156 Z M 262.492188 26.535156 "/>
</g>
</svg>
