<?xml version="1.0" encoding="UTF-8"?>
<svg xmlns="http://www.w3.org/2000/svg" xmlns:xlink="http://www.w3.org/1999/xlink" width="px" height="0px" viewBox="0 0 384 111" version="1.1">
<defs>
<linearGradient id="linear0" gradientUnits="userSpaceOnUse" x1="0.5" y1="0" x2="0.5" y2="1" gradientTransform="matrix(23.484375,0,0,110.25,0.015625,0.429688)">
<stop offset="0" style="stop-color:rgb(8.627451%,69.019608%,92.941176%);stop-opacity:0.8;"/>
<stop offset="1" style="stop-color:rgb(5.882353%,34.901961%,69.803922%);stop-opacity:0.835294;"/>
</linearGradient>
<linearGradient id="linear1" gradientUnits="userSpaceOnUse" x1="0.5" y1="0" x2="0.5" y2="1" gradientTransform="matrix(-23.964844,0,0,110.238281,90.917969,0.441406)">
<stop offset="0" style="stop-color:rgb(49.019608%,71.372549%,26.27451%);stop-opacity:1;"/>
<stop offset="1" style="stop-color:rgb(21.176471%,45.882353%,20%);stop-opacity:1;"/>
</linearGradient>
<linearGradient id="linear2" gradientUnits="userSpaceOnUse" x1="0.5" y1="0" x2="0.5" y2="1" gradientTransform="matrix(78.175781,0,0,110.257812,6.367188,0.449219)">
<stop offset="0" style="stop-color:rgb(53.333333%,77.647059%,28.627451%);stop-opacity:0.8;"/>
<stop offset="1" style="stop-color:rgb(26.27451%,57.254902%,25.098039%);stop-opacity:0.839216;"/>
</linearGradient>
</defs>
<g id="surface1">
<path style=" stroke:none;fill-rule:nonzero;fill:url(#linear0);" d="M 0.015625 24.140625 L 23.5 0.429688 L 23.5 110.679688 L 0.015625 87.242188 Z M 0.015625 24.140625 "/>
<path style=" stroke:none;fill-rule:nonzero;fill:url(#linear1);" d="M 90.757812 24.363281 L 66.953125 0.441406 L 67.433594 110.679688 L 90.917969 87.242188 Z M 90.757812 24.363281 "/>
<path style=" stroke:none;fill-rule:nonzero;fill:url(#linear2);" d="M 23.484375 0.449219 L 84.542969 93.621094 L 67.457031 110.707031 L 6.367188 17.742188 Z M 23.484375 0.449219 "/>
<path style=" stroke:none;fill-rule:nonzero;fill:rgb(0%,0%,0%);fill-opacity:0.129412;" d="M 23.503906 43.664062 L 23.472656 47.335938 L 4.621094 19.503906 L 6.367188 17.722656 Z M 23.503906 43.664062 "/>
<path style=" stroke:none;fill-rule:nonzero;fill:rgb(26.666667%,26.666667%,26.666667%);fill-opacity:1;" d="M 117.433594 80.023438 L 117.433594 33.484375 L 119.851562 33.484375 C 120.660156 33.484375 121.125 33.875 121.25 34.652344 L 121.667969 41.667969 C 123.777344 38.988281 126.234375 36.828125 129.039062 35.191406 C 131.84375 33.554688 134.96875 32.734375 138.410156 32.734375 C 140.953125 32.734375 143.195312 33.140625 145.132812 33.953125 C 147.070312 34.761719 148.675781 35.933594 149.945312 37.460938 C 151.21875 38.988281 152.179688 40.828125 152.832031 42.980469 C 153.480469 45.128906 153.808594 47.5625 153.808594 50.273438 L 153.808594 80.023438 L 149.390625 80.023438 L 149.390625 50.273438 C 149.390625 45.910156 148.394531 42.488281 146.414062 40.007812 C 144.425781 37.53125 141.390625 36.289062 137.296875 36.289062 C 134.253906 36.289062 131.433594 37.078125 128.832031 38.652344 C 126.226562 40.226562 123.898438 42.386719 121.851562 45.128906 L 121.851562 80.023438 Z M 117.433594 80.023438 "/>
<path style=" stroke:none;fill-rule:nonzero;fill:rgb(26.666667%,26.666667%,26.666667%);fill-opacity:1;" d="M 181.671875 32.734375 C 184.304688 32.734375 186.742188 33.1875 188.984375 34.089844 C 191.222656 34.992188 193.167969 36.308594 194.8125 38.035156 C 196.457031 39.761719 197.742188 41.886719 198.667969 44.40625 C 199.589844 46.929688 200.054688 49.824219 200.054688 53.089844 C 200.054688 53.773438 199.953125 54.242188 199.75 54.492188 C 199.542969 54.742188 199.222656 54.863281 198.785156 54.863281 L 165.027344 54.863281 L 165.027344 55.75 C 165.027344 59.238281 165.4375 62.304688 166.25 64.949219 C 167.066406 67.59375 168.226562 69.8125 169.730469 71.601562 C 171.234375 73.390625 173.050781 74.738281 175.183594 75.640625 C 177.316406 76.542969 179.699219 76.992188 182.332031 76.992188 C 184.679688 76.992188 186.71875 76.738281 188.441406 76.222656 C 190.164062 75.710938 191.613281 75.132812 192.789062 74.496094 C 193.964844 73.859375 194.898438 73.28125 195.585938 72.769531 C 196.277344 72.253906 196.777344 71.996094 197.09375 71.996094 C 197.5 71.996094 197.8125 72.152344 198.03125 72.464844 L 199.253906 73.957031 C 198.503906 74.890625 197.507812 75.765625 196.269531 76.574219 C 195.03125 77.382812 193.652344 78.074219 192.132812 78.652344 C 190.613281 79.226562 188.984375 79.683594 187.242188 80.027344 C 185.503906 80.371094 183.757812 80.542969 182 80.542969 C 178.804688 80.542969 175.890625 79.988281 173.257812 78.882812 C 170.625 77.78125 168.363281 76.167969 166.480469 74.050781 C 164.59375 71.933594 163.136719 69.34375 162.105469 66.277344 C 161.078125 63.214844 160.5625 59.703125 160.5625 55.75 C 160.5625 52.421875 161.039062 49.347656 161.996094 46.53125 C 162.953125 43.714844 164.332031 41.285156 166.132812 39.25 C 167.9375 37.210938 170.144531 35.617188 172.761719 34.464844 C 175.378906 33.3125 178.347656 32.734375 181.671875 32.734375 Z M 181.96875 35.855469 C 179.53125 35.855469 177.34375 36.21875 175.410156 36.949219 C 173.476562 37.675781 171.804688 38.726562 170.394531 40.09375 C 168.988281 41.460938 167.847656 43.101562 166.972656 45.015625 C 166.101562 46.929688 165.523438 49.074219 165.238281 51.441406 L 196.417969 51.441406 C 196.417969 49.011719 196.066406 46.832031 195.371094 44.902344 C 194.671875 42.972656 193.691406 41.339844 192.425781 40 C 191.15625 38.664062 189.636719 37.640625 187.863281 36.925781 C 186.085938 36.210938 184.125 35.855469 181.96875 35.855469 Z M 181.96875 35.855469 "/>
<path style=" stroke:none;fill-rule:nonzero;fill:rgb(26.666667%,26.666667%,26.666667%);fill-opacity:1;" d="M 225.800781 32.734375 C 229.191406 32.734375 232.226562 33.304688 234.90625 34.441406 C 237.582031 35.578125 239.84375 37.1875 241.679688 39.273438 C 243.519531 41.355469 244.921875 43.871094 245.890625 46.8125 C 246.855469 49.753906 247.339844 53.042969 247.339844 56.683594 C 247.339844 60.328125 246.855469 63.609375 245.890625 66.535156 C 244.921875 69.460938 243.519531 71.96875 241.679688 74.050781 C 239.84375 76.136719 237.582031 77.738281 234.90625 78.859375 C 232.226562 79.980469 229.191406 80.542969 225.800781 80.542969 C 222.40625 80.542969 219.371094 79.980469 216.691406 78.859375 C 214.015625 77.738281 211.746094 76.136719 209.894531 74.050781 C 208.039062 71.96875 206.628906 69.460938 205.660156 66.535156 C 204.695312 63.609375 204.210938 60.328125 204.210938 56.683594 C 204.210938 53.042969 204.695312 49.753906 205.660156 46.8125 C 206.628906 43.871094 208.039062 41.359375 209.894531 39.273438 C 211.746094 37.1875 214.015625 35.578125 216.691406 34.441406 C 219.371094 33.304688 222.40625 32.734375 225.800781 32.734375 Z M 225.539062 77.421875 C 228.316406 77.421875 230.738281 76.945312 232.8125 75.992188 C 234.886719 75.035156 236.617188 73.667969 238.003906 71.882812 C 239.390625 70.097656 240.429688 67.945312 241.113281 65.421875 C 241.800781 62.902344 242.144531 60.078125 242.144531 56.945312 C 242.144531 53.84375 241.800781 51.027344 241.113281 48.492188 C 240.429688 45.953125 239.390625 43.785156 238.003906 41.984375 C 236.617188 40.1875 234.886719 38.800781 232.8125 37.828125 C 230.738281 36.859375 228.3125 36.375 225.539062 36.375 C 222.765625 36.375 220.339844 36.859375 218.265625 37.828125 C 216.191406 38.800781 214.460938 40.1875 213.074219 41.984375 C 211.6875 43.785156 210.640625 45.953125 209.941406 48.492188 C 209.238281 51.027344 208.886719 53.84375 208.886719 56.945312 C 208.886719 60.078125 209.238281 62.902344 209.941406 65.421875 C 210.640625 67.945312 211.6875 70.097656 213.074219 71.882812 C 214.460938 73.667969 216.191406 75.035156 218.265625 75.992188 C 220.339844 76.945312 222.761719 77.421875 225.539062 77.421875 Z M 225.539062 77.421875 "/>
<path style=" stroke:none;fill-rule:nonzero;fill:rgb(26.666667%,26.666667%,26.666667%);fill-opacity:1;" d="M 275.175781 78.980469 L 264.757812 78.980469 L 245.78125 31.175781 L 255.316406 31.175781 C 256.152344 31.175781 256.859375 31.378906 257.433594 31.78125 C 258.003906 32.1875 258.402344 32.699219 258.617188 33.320312 L 267.828125 58.855469 C 268.351562 60.34375 268.796875 61.804688 269.152344 63.234375 C 269.507812 64.664062 269.828125 66.089844 270.105469 67.519531 C 270.386719 66.089844 270.703125 64.664062 271.058594 63.234375 C 271.414062 61.804688 271.875 60.34375 272.429688 58.855469 L 281.875 33.320312 C 282.089844 32.699219 282.476562 32.1875 283.035156 31.78125 C 283.59375 31.378906 284.261719 31.175781 285.035156 31.175781 L 294.105469 31.175781 Z M 275.175781 78.980469 "/>
<path style=" stroke:none;fill-rule:nonzero;fill:rgb(26.666667%,26.666667%,26.666667%);fill-opacity:1;" d="M 296.703125 31.695312 L 308.65625 31.695312 L 308.65625 79.503906 L 296.703125 79.503906 Z M 296.703125 31.695312 "/>
<path style=" stroke:none;fill-rule:nonzero;fill:rgb(26.666667%,26.666667%,26.666667%);fill-opacity:1;" d="M 316.449219 79.503906 L 316.449219 31.40625 L 323.527344 31.40625 C 325.027344 31.40625 326.011719 32.109375 326.480469 33.515625 L 327.230469 37.078125 C 328.074219 36.140625 328.957031 35.28125 329.878906 34.5 C 330.800781 33.71875 331.785156 33.046875 332.832031 32.484375 C 333.878906 31.921875 335.003906 31.476562 336.207031 31.148438 C 337.410156 30.820312 338.730469 30.65625 340.167969 30.65625 C 343.199219 30.65625 345.691406 31.476562 347.644531 33.117188 C 349.597656 34.757812 351.0625 36.9375 352.03125 39.65625 C 352.78125 38.0625 353.71875 36.695312 354.84375 35.554688 C 355.96875 34.417969 357.203125 33.484375 358.546875 32.765625 C 359.886719 32.050781 361.320312 31.515625 362.835938 31.171875 C 364.347656 30.828125 365.871094 30.65625 367.40625 30.65625 C 370.0625 30.65625 372.421875 31.066406 374.484375 31.875 C 376.546875 32.6875 378.28125 33.875 379.6875 35.4375 C 381.09375 37 382.164062 38.90625 382.898438 41.15625 C 383.632812 43.40625 384 45.984375 384 48.890625 L 384 79.503906 L 372.421875 79.503906 L 372.421875 48.890625 C 372.421875 45.828125 371.75 43.523438 370.40625 41.976562 C 369.0625 40.429688 367.09375 39.65625 364.5 39.65625 C 363.3125 39.65625 362.210938 39.859375 361.195312 40.265625 C 360.179688 40.675781 359.289062 41.261719 358.523438 42.023438 C 357.757812 42.789062 357.15625 43.75 356.71875 44.90625 C 356.277344 46.0625 356.0625 47.390625 356.0625 48.890625 L 356.0625 79.503906 L 344.4375 79.503906 L 344.4375 48.890625 C 344.4375 45.671875 343.789062 43.328125 342.492188 41.859375 C 341.195312 40.394531 339.28125 39.65625 336.75 39.65625 C 335.089844 39.65625 333.539062 40.070312 332.085938 40.898438 C 330.628906 41.726562 329.28125 42.859375 328.03125 44.296875 L 328.03125 79.503906 Z M 316.449219 79.503906 "/>
<path style=" stroke:none;fill-rule:nonzero;fill:rgb(26.666667%,26.666667%,26.666667%);fill-opacity:1;" d="M 296.703125 15.589844 L 308.65625 15.589844 L 308.65625 25.460938 L 296.703125 25.460938 Z M 296.703125 15.589844 "/>
</g>
</svg>
