<?xml version="1.0" encoding="UTF-8"?>
<svg xmlns="http://www.w3.org/2000/svg" xmlns:xlink="http://www.w3.org/1999/xlink" width="px" height="0px" viewBox="0 0 192 201" version="1.1">
<g id="surface1">
<path style=" stroke:none;fill-rule:nonzero;fill:rgb(100%,100%,100%);fill-opacity:1;" d="M 12.070312 8.652344 L 123.066406 0.457031 C 136.703125 -0.714844 140.207031 0.0742188 148.777344 6.308594 L 184.210938 31.269531 C 190.054688 35.5625 192 36.730469 192 41.40625 L 192 178.300781 C 192 186.878906 188.882812 191.953125 177.976562 192.730469 L 49.078125 200.535156 C 40.894531 200.921875 36.996094 199.75 32.710938 194.289062 L 6.621094 160.359375 C 1.9375 154.113281 0 149.441406 0 143.976562 L 0 22.292969 C 0 15.28125 3.117188 9.429688 12.070312 8.652344 Z M 12.070312 8.652344 "/>
<path style=" stroke:none;fill-rule:nonzero;fill:rgb(0%,0%,0%);fill-opacity:1;" d="M 123.066406 0.457031 L 12.070312 8.652344 C 3.117188 9.429688 0 15.28125 0 22.292969 L 0 143.976562 C 0 149.441406 1.9375 154.113281 6.621094 160.359375 L 32.710938 194.289062 C 36.996094 199.75 40.894531 200.921875 49.078125 200.535156 L 177.976562 192.730469 C 188.878906 191.953125 192 186.878906 192 178.300781 L 192 41.40625 C 192 36.972656 190.25 35.695312 185.09375 31.910156 C 184.796875 31.695312 184.5 31.480469 184.203125 31.269531 L 148.777344 6.308594 C 140.207031 0.0742188 136.703125 -0.714844 123.066406 0.457031 Z M 51.996094 39.164062 C 41.46875 39.875 39.082031 40.035156 33.105469 35.171875 L 17.90625 23.082031 C 16.363281 21.519531 17.136719 19.566406 21.03125 19.179688 L 127.734375 11.382812 C 136.695312 10.601562 141.363281 13.722656 144.867188 16.449219 L 163.167969 29.710938 C 163.949219 30.105469 165.894531 32.4375 163.554688 32.4375 L 53.359375 39.070312 Z M 39.726562 177.128906 L 39.726562 60.917969 C 39.726562 55.839844 41.285156 53.5 45.949219 53.105469 L 172.515625 45.699219 C 176.808594 45.308594 178.746094 48.039062 178.746094 53.105469 L 178.746094 168.542969 C 178.746094 173.621094 177.964844 177.914062 170.957031 178.300781 L 49.84375 185.320312 C 42.835938 185.710938 39.726562 183.375 39.726562 177.128906 Z M 159.28125 67.148438 C 160.058594 70.660156 159.28125 74.167969 155.773438 74.570312 L 149.933594 75.726562 L 149.933594 161.53125 C 144.867188 164.257812 140.199219 165.816406 136.300781 165.816406 C 130.070312 165.816406 128.511719 163.863281 123.84375 158.019531 L 85.667969 97.960938 L 85.667969 156.066406 L 97.746094 158.800781 C 97.746094 158.800781 97.746094 165.824219 88.003906 165.824219 L 61.144531 167.382812 C 60.359375 165.816406 61.144531 161.917969 63.863281 161.140625 L 70.878906 159.195312 L 70.878906 82.367188 L 61.144531 81.578125 C 60.359375 78.066406 62.304688 73 67.761719 72.605469 L 96.582031 70.664062 L 136.300781 131.5 L 136.300781 77.679688 L 126.175781 76.515625 C 125.394531 72.21875 128.511719 69.09375 132.402344 68.714844 Z M 159.28125 67.148438 "/>
</g>
</svg>
