<?xml version="1.0" encoding="UTF-8"?>
<svg xmlns="http://www.w3.org/2000/svg" xmlns:xlink="http://www.w3.org/1999/xlink" width="px" height="0px" viewBox="0 0 192 198" version="1.1">
<g id="surface1">
<path style=" stroke:none;fill-rule:nonzero;fill:rgb(0%,0%,0%);fill-opacity:1;" d="M 191.257812 118.5625 C 190.105469 115.078125 187.089844 112.648438 183.1875 112.066406 C 181.351562 111.792969 179.242188 111.910156 176.75 112.421875 C 172.40625 113.320312 169.183594 113.660156 166.832031 113.726562 C 175.710938 98.738281 182.929688 81.644531 187.085938 65.554688 C 193.804688 39.539062 190.214844 27.6875 186.019531 22.324219 C 174.914062 8.136719 158.710938 0.511719 139.164062 0.277344 C 128.738281 0.152344 119.582031 2.210938 114.808594 3.691406 C 110.363281 2.90625 105.582031 2.46875 100.566406 2.386719 C 91.164062 2.238281 82.855469 4.285156 75.757812 8.5 C 71.824219 7.171875 65.519531 5.296875 58.234375 4.101562 C 41.101562 1.289062 27.296875 3.480469 17.195312 10.617188 C 4.964844 19.253906 -0.703125 34.261719 0.347656 55.226562 C 0.679688 61.882812 4.402344 82.128906 10.265625 101.335938 C 13.632812 112.375 17.226562 121.539062 20.941406 128.582031 C 26.210938 138.570312 31.851562 144.449219 38.179688 146.5625 C 41.730469 147.746094 48.175781 148.570312 54.957031 142.925781 C 55.816406 143.964844 56.964844 145 58.484375 145.960938 C 60.417969 147.179688 62.78125 148.175781 65.140625 148.765625 C 73.648438 150.890625 81.613281 150.359375 88.414062 147.378906 C 88.453125 148.589844 88.484375 149.742188 88.515625 150.742188 C 88.558594 152.359375 88.601562 153.945312 88.664062 155.429688 C 89.066406 165.460938 89.746094 173.257812 91.769531 178.714844 C 91.878906 179.015625 92.03125 179.472656 92.1875 179.957031 C 93.195312 183.046875 94.882812 188.214844 99.175781 192.265625 C 103.617188 196.460938 108.992188 197.746094 113.917969 197.746094 C 116.386719 197.746094 118.742188 197.421875 120.808594 196.980469 C 128.171875 195.402344 136.539062 192.996094 142.589844 184.382812 C 148.308594 176.238281 151.089844 163.96875 151.59375 144.636719 C 151.660156 144.09375 151.71875 143.570312 151.777344 143.074219 C 151.816406 142.738281 151.855469 142.394531 151.894531 142.050781 L 153.246094 142.171875 L 153.589844 142.195312 C 161.09375 142.535156 170.265625 140.945312 175.898438 138.328125 C 180.351562 136.261719 194.613281 128.730469 191.257812 118.5625 "/>
<path style=" stroke:none;fill-rule:nonzero;fill:rgb(20%,40.392157%,56.862745%);fill-opacity:1;" d="M 178.429688 120.542969 C 156.125 125.144531 154.589844 117.589844 154.589844 117.589844 C 178.140625 82.644531 187.984375 38.289062 179.492188 27.433594 C 156.3125 -2.179688 116.191406 11.824219 115.523438 12.1875 L 115.304688 12.226562 C 110.898438 11.3125 105.96875 10.765625 100.425781 10.675781 C 90.332031 10.511719 82.675781 13.320312 76.867188 17.726562 C 76.867188 17.726562 5.296875 -11.757812 8.625 54.808594 C 9.332031 68.972656 28.921875 161.964844 52.289062 133.878906 C 60.828125 123.605469 69.078125 114.921875 69.078125 114.921875 C 73.179688 117.644531 78.085938 119.035156 83.226562 118.535156 L 83.628906 118.195312 C 83.503906 119.46875 83.558594 120.71875 83.789062 122.195312 C 77.769531 128.917969 79.539062 130.101562 67.503906 132.578125 C 55.328125 135.085938 62.480469 139.554688 67.152344 140.722656 C 72.8125 142.136719 85.910156 144.144531 94.761719 131.753906 L 94.40625 133.167969 C 96.765625 135.058594 98.421875 145.457031 98.144531 154.882812 C 97.867188 164.308594 97.683594 170.78125 99.539062 175.835938 C 101.398438 180.890625 103.25 192.261719 119.070312 188.875 C 132.289062 186.042969 139.136719 178.699219 140.089844 166.457031 C 140.765625 157.753906 142.296875 159.039062 142.394531 151.257812 L 143.621094 147.570312 C 145.035156 135.773438 143.84375 131.964844 151.988281 133.734375 L 153.96875 133.910156 C 159.960938 134.183594 167.804688 132.945312 172.410156 130.804688 C 182.324219 126.207031 188.203125 118.523438 178.429688 120.542969 "/>
<path style=" stroke:none;fill-rule:nonzero;fill:rgb(100%,100%,100%);fill-opacity:1;" d="M 81.058594 61.144531 C 79.046875 60.863281 77.226562 61.121094 76.304688 61.820312 C 75.789062 62.210938 75.628906 62.667969 75.585938 62.980469 C 75.46875 63.808594 76.050781 64.726562 76.40625 65.199219 C 77.414062 66.535156 78.890625 67.453125 80.351562 67.65625 C 80.5625 67.6875 80.773438 67.699219 80.980469 67.699219 C 83.414062 67.699219 85.628906 65.804688 85.824219 64.40625 C 86.066406 62.65625 83.523438 61.488281 81.058594 61.144531 "/>
<path style=" stroke:none;fill-rule:nonzero;fill:rgb(100%,100%,100%);fill-opacity:1;" d="M 147.644531 61.199219 C 147.453125 59.824219 145.007812 59.433594 142.691406 59.757812 C 140.375 60.078125 138.128906 61.125 138.316406 62.5 C 138.46875 63.570312 140.398438 65.398438 142.6875 65.398438 C 142.878906 65.398438 143.074219 65.386719 143.269531 65.359375 C 144.796875 65.148438 145.917969 64.175781 146.453125 63.617188 C 147.261719 62.765625 147.730469 61.816406 147.644531 61.199219 "/>
<path style=" stroke:none;fill-rule:nonzero;fill:rgb(100%,100%,100%);fill-opacity:1;" d="M 185.851562 120.019531 C 185 117.445312 182.265625 116.621094 177.714844 117.558594 C 164.210938 120.347656 159.375 118.414062 157.789062 117.246094 C 168.285156 101.253906 176.917969 81.925781 181.578125 63.894531 C 183.785156 55.351562 185.003906 47.417969 185.101562 40.953125 C 185.210938 33.851562 184.003906 28.636719 181.511719 25.453125 C 171.457031 12.609375 156.707031 5.71875 138.847656 5.53125 C 126.574219 5.390625 116.199219 8.535156 114.1875 9.417969 C 109.953125 8.363281 105.339844 7.71875 100.3125 7.636719 C 91.097656 7.484375 83.128906 9.691406 76.535156 14.1875 C 73.667969 13.125 66.265625 10.582031 57.210938 9.125 C 41.558594 6.601562 29.117188 8.511719 20.242188 14.800781 C 9.648438 22.304688 4.757812 35.71875 5.707031 54.671875 C 6.023438 61.046875 9.65625 80.660156 15.390625 99.445312 C 22.9375 124.167969 31.140625 138.164062 39.769531 141.042969 C 40.78125 141.378906 41.945312 141.617188 43.230469 141.617188 C 46.378906 141.617188 50.238281 140.195312 54.253906 135.367188 C 60.925781 127.339844 67.15625 120.617188 69.453125 118.171875 C 72.84375 119.996094 76.570312 121.011719 80.382812 121.113281 C 80.390625 121.210938 80.402344 121.3125 80.410156 121.410156 C 79.644531 122.320312 79.019531 123.113281 78.484375 123.792969 C 75.839844 127.144531 75.292969 127.84375 66.789062 129.59375 C 64.371094 130.09375 57.945312 131.417969 57.851562 135.921875 C 57.75 140.839844 65.445312 142.90625 66.324219 143.125 C 69.378906 143.890625 72.320312 144.269531 75.128906 144.269531 C 81.957031 144.269531 87.964844 142.023438 92.765625 137.683594 C 92.617188 155.222656 93.351562 172.503906 95.457031 177.769531 C 97.179688 182.082031 101.394531 192.617188 114.703125 192.617188 C 116.65625 192.617188 118.804688 192.390625 121.171875 191.882812 C 135.0625 188.902344 141.09375 182.765625 143.425781 169.230469 C 144.675781 161.996094 146.820312 144.722656 147.828125 135.457031 C 149.953125 136.121094 152.691406 136.425781 155.652344 136.425781 C 161.828125 136.425781 168.949219 135.113281 173.417969 133.039062 C 178.4375 130.707031 187.492188 124.988281 185.851562 120.019531 Z M 152.773438 57.410156 C 152.726562 60.144531 152.347656 62.628906 151.949219 65.21875 C 151.519531 68.007812 151.078125 70.890625 150.964844 74.386719 C 150.855469 77.792969 151.28125 81.332031 151.691406 84.757812 C 152.523438 91.671875 153.375 98.789062 150.074219 105.816406 C 149.5625 104.902344 149.066406 103.910156 148.613281 102.808594 C 148.203125 101.8125 147.3125 100.214844 146.078125 98.003906 C 141.277344 89.398438 130.039062 69.242188 135.792969 61.019531 C 137.503906 58.570312 141.855469 56.054688 152.773438 57.410156 Z M 139.539062 11.070312 C 155.539062 11.421875 168.195312 17.40625 177.15625 28.859375 C 184.03125 37.640625 176.460938 77.605469 154.550781 112.085938 C 154.335938 111.808594 154.117188 111.53125 153.886719 111.246094 C 153.796875 111.132812 153.703125 111.019531 153.609375 110.902344 C 159.273438 101.550781 158.164062 92.300781 157.179688 84.097656 C 156.773438 80.730469 156.394531 77.550781 156.488281 74.566406 C 156.589844 71.398438 157.007812 68.6875 157.414062 66.0625 C 157.910156 62.824219 158.417969 59.480469 158.277344 55.53125 C 158.382812 55.117188 158.425781 54.628906 158.371094 54.050781 C 158.011719 50.265625 153.691406 38.941406 144.886719 28.691406 C 140.070312 23.085938 133.046875 16.8125 123.457031 12.582031 C 127.582031 11.726562 133.222656 10.929688 139.539062 11.070312 Z M 50.003906 131.832031 C 45.582031 137.152344 42.523438 136.132812 41.519531 135.800781 C 34.972656 133.613281 27.375 119.777344 20.675781 97.832031 C 14.878906 78.84375 11.492188 59.75 11.226562 54.394531 C 10.378906 37.460938 14.484375 25.660156 23.425781 19.316406 C 37.980469 8.996094 61.90625 15.175781 71.519531 18.308594 C 71.382812 18.445312 71.238281 18.570312 71.101562 18.710938 C 55.324219 34.644531 55.699219 61.867188 55.738281 63.53125 C 55.734375 64.171875 55.789062 65.082031 55.863281 66.332031 C 56.136719 70.910156 56.640625 79.429688 55.292969 89.082031 C 54.035156 98.050781 56.800781 106.828125 62.875 113.164062 C 63.503906 113.820312 64.160156 114.433594 64.835938 115.015625 C 62.132812 117.910156 56.257812 124.3125 50.003906 131.832031 Z M 66.863281 109.339844 C 61.96875 104.230469 59.746094 97.128906 60.765625 89.847656 C 62.191406 79.652344 61.664062 70.773438 61.382812 66.003906 C 61.34375 65.335938 61.308594 64.75 61.285156 64.289062 C 63.589844 62.246094 74.273438 56.523438 81.886719 58.269531 C 85.363281 59.066406 87.480469 61.429688 88.363281 65.503906 C 92.921875 86.578125 88.964844 95.363281 85.789062 102.425781 C 85.132812 103.878906 84.515625 105.253906 83.988281 106.675781 L 83.578125 107.773438 C 82.539062 110.554688 81.578125 113.140625 80.980469 115.59375 C 75.777344 115.578125 70.714844 113.355469 66.863281 109.339844 Z M 67.664062 137.765625 C 66.144531 137.382812 64.777344 136.726562 63.976562 136.179688 C 64.644531 135.863281 65.835938 135.433594 67.902344 135.007812 C 77.90625 132.949219 79.453125 131.496094 82.824219 127.210938 C 83.597656 126.230469 84.476562 125.117188 85.691406 123.761719 C 85.691406 123.761719 85.691406 123.761719 85.691406 123.757812 C 87.5 121.734375 88.328125 122.078125 89.828125 122.699219 C 91.042969 123.203125 92.226562 124.726562 92.707031 126.402344 C 92.933594 127.195312 93.1875 128.699219 92.355469 129.871094 C 85.308594 139.734375 75.039062 139.609375 67.664062 137.765625 Z M 120.011719 186.476562 C 107.777344 189.101562 103.441406 182.855469 100.585938 175.71875 C 98.746094 171.109375 97.839844 150.332031 98.480469 127.382812 C 98.492188 127.078125 98.445312 126.78125 98.363281 126.503906 C 98.289062 125.96875 98.175781 125.429688 98.019531 124.882812 C 97.066406 121.542969 94.734375 118.75 91.941406 117.59375 C 90.832031 117.132812 88.796875 116.289062 86.347656 116.917969 C 86.871094 114.765625 87.773438 112.335938 88.757812 109.707031 L 89.167969 108.601562 C 89.632812 107.351562 90.214844 106.058594 90.828125 104.691406 C 94.152344 97.304688 98.707031 87.191406 93.765625 64.335938 C 91.914062 55.773438 85.734375 51.59375 76.363281 52.566406 C 70.742188 53.144531 65.605469 55.414062 63.042969 56.710938 C 62.488281 56.992188 61.984375 57.261719 61.515625 57.523438 C 62.230469 48.898438 64.933594 32.78125 75.046875 22.582031 C 81.410156 16.160156 89.890625 12.992188 100.222656 13.160156 C 120.578125 13.496094 133.628906 23.941406 140.996094 32.644531 C 147.34375 40.148438 150.78125 47.703125 152.152344 51.777344 C 141.835938 50.730469 134.820312 52.765625 131.261719 57.851562 C 123.527344 68.910156 135.496094 90.378906 141.25 100.695312 C 142.304688 102.589844 143.214844 104.222656 143.503906 104.917969 C 145.375 109.457031 147.800781 112.488281 149.570312 114.703125 C 150.113281 115.378906 150.640625 116.039062 151.042969 116.613281 C 147.917969 117.511719 142.304688 119.59375 142.816406 129.996094 C 142.402344 135.214844 139.46875 159.65625 137.980469 168.289062 C 136.011719 179.699219 131.816406 183.949219 120.011719 186.476562 Z M 171.089844 128.027344 C 167.894531 129.507812 162.550781 130.621094 157.46875 130.859375 C 151.859375 131.121094 149.003906 130.230469 148.332031 129.683594 C 148.015625 123.199219 150.429688 122.523438 152.984375 121.804688 C 153.386719 121.691406 153.777344 121.582031 154.152344 121.453125 C 154.390625 121.640625 154.644531 121.832031 154.929688 122.019531 C 159.4375 124.996094 167.480469 125.316406 178.832031 122.972656 C 178.875 122.964844 178.917969 122.953125 178.957031 122.945312 C 177.425781 124.378906 174.804688 126.300781 171.089844 128.027344 Z M 171.089844 128.027344 "/>
</g>
</svg>
