<?xml version="1.0" encoding="UTF-8"?>
<svg xmlns="http://www.w3.org/2000/svg" xmlns:xlink="http://www.w3.org/1999/xlink" width="px" height="0px" viewBox="0 0 191 191" version="1.1">
<defs>
<linearGradient id="linear0" gradientUnits="userSpaceOnUse" x1="0.129594" y1="0.120394" x2="0.796388" y2="0.782009" gradientTransform="matrix(141.226562,0,0,142.160156,0.109375,0.0546875)">
<stop offset="0" style="stop-color:rgb(21.960784%,49.411765%,72.156863%);stop-opacity:1;"/>
<stop offset="1" style="stop-color:rgb(21.176471%,41.176471%,58.039216%);stop-opacity:1;"/>
</linearGradient>
<linearGradient id="linear1" gradientUnits="userSpaceOnUse" x1="0.191275" y1="0.205792" x2="0.907415" y2="0.88429" gradientTransform="matrix(141.226562,0,0,142.160156,49.421875,48.183594)">
<stop offset="0" style="stop-color:rgb(100%,87.843137%,32.156863%);stop-opacity:1;"/>
<stop offset="1" style="stop-color:rgb(100%,76.470588%,19.215686%);stop-opacity:1;"/>
</linearGradient>
</defs>
<g id="surface1">
<path style=" stroke:none;fill-rule:nonzero;fill:url(#linear0);" d="M 94.691406 0.0546875 C 46.320312 0.0546875 49.339844 21.113281 49.339844 21.113281 L 49.394531 42.929688 L 95.554688 42.929688 L 95.554688 49.480469 L 31.058594 49.480469 C 31.058594 49.480469 0.109375 45.957031 0.109375 94.953125 C 0.109375 143.953125 27.125 142.214844 27.125 142.214844 L 43.246094 142.214844 L 43.246094 119.476562 C 43.246094 119.476562 42.378906 92.355469 69.832031 92.355469 L 115.613281 92.355469 C 115.613281 92.355469 141.335938 92.773438 141.335938 67.398438 L 141.335938 25.445312 C 141.335938 25.445312 145.242188 0.0546875 94.691406 0.0546875 Z M 69.238281 14.726562 C 73.832031 14.726562 77.542969 18.453125 77.542969 23.0625 C 77.542969 27.671875 73.832031 31.398438 69.238281 31.398438 C 64.644531 31.398438 60.933594 27.671875 60.933594 23.0625 C 60.933594 18.453125 64.644531 14.726562 69.238281 14.726562 Z M 69.238281 14.726562 "/>
<path style=" stroke:none;fill-rule:nonzero;fill:url(#linear1);" d="M 96.066406 190.34375 C 144.4375 190.34375 141.414062 169.285156 141.414062 169.285156 L 141.359375 147.46875 L 95.203125 147.46875 L 95.203125 140.917969 L 159.695312 140.917969 C 159.695312 140.917969 190.648438 144.445312 190.648438 95.445312 C 190.648438 46.449219 163.632812 48.183594 163.632812 48.183594 L 147.507812 48.183594 L 147.507812 70.921875 C 147.507812 70.921875 148.378906 98.042969 120.925781 98.042969 L 75.140625 98.042969 C 75.140625 98.042969 49.421875 97.625 49.421875 123 L 49.421875 164.957031 C 49.421875 164.957031 45.515625 190.34375 96.066406 190.34375 Z M 121.515625 175.675781 C 116.925781 175.675781 113.210938 171.949219 113.210938 167.335938 C 113.210938 162.726562 116.925781 159 121.515625 159 C 126.109375 159 129.820312 162.726562 129.820312 167.335938 C 129.820312 171.949219 126.109375 175.675781 121.515625 175.675781 Z M 121.515625 175.675781 "/>
</g>
</svg>
