<?xml version="1.0" encoding="UTF-8"?>
<svg xmlns="http://www.w3.org/2000/svg" xmlns:xlink="http://www.w3.org/1999/xlink" width="px" height="0px" viewBox="0 0 192 171" version="1.1">
<g id="surface1">
<path style=" stroke:none;fill-rule:nonzero;fill:rgb(0%,84.705882%,100%);fill-opacity:1;" d="M 157.863281 55.367188 C 155.871094 54.683594 153.808594 54.035156 151.683594 53.421875 C 152.03125 51.996094 152.351562 50.585938 152.636719 49.203125 C 157.316406 26.492188 154.257812 8.199219 143.808594 2.175781 C 133.792969 -3.601562 117.414062 2.421875 100.871094 16.816406 C 99.277344 18.203125 97.683594 19.667969 96.089844 21.203125 C 95.027344 20.1875 93.964844 19.207031 92.90625 18.265625 C 75.570312 2.871094 58.191406 -3.617188 47.753906 2.425781 C 37.746094 8.21875 34.785156 25.417969 38.996094 46.941406 C 39.402344 49.019531 39.878906 51.144531 40.414062 53.300781 C 37.957031 54 35.582031 54.742188 33.308594 55.535156 C 12.980469 62.621094 0 73.730469 0 85.25 C 0 97.148438 13.9375 109.085938 35.109375 116.320312 C 36.78125 116.894531 38.511719 117.433594 40.300781 117.945312 C 39.71875 120.28125 39.214844 122.566406 38.792969 124.796875 C 34.777344 145.949219 37.914062 162.742188 47.890625 168.5 C 58.199219 174.441406 75.5 168.332031 92.347656 153.605469 C 93.679688 152.441406 95.015625 151.207031 96.355469 149.914062 C 98.089844 151.585938 99.820312 153.167969 101.542969 154.648438 C 117.863281 168.691406 133.976562 174.363281 143.949219 168.589844 C 154.246094 162.628906 157.59375 144.585938 153.25 122.636719 C 152.917969 120.960938 152.53125 119.25 152.097656 117.507812 C 153.3125 117.148438 154.503906 116.777344 155.667969 116.390625 C 177.679688 109.097656 192 97.308594 192 85.25 C 192 73.6875 178.597656 62.507812 157.863281 55.367188 Z M 153.089844 108.605469 C 152.039062 108.953125 150.960938 109.289062 149.863281 109.613281 C 147.433594 101.921875 144.15625 93.742188 140.140625 85.289062 C 143.972656 77.039062 147.125 68.964844 149.484375 61.324219 C 151.449219 61.890625 153.355469 62.492188 155.191406 63.125 C 172.960938 69.238281 183.796875 78.28125 183.796875 85.25 C 183.796875 92.671875 172.09375 102.308594 153.089844 108.605469 Z M 145.203125 124.230469 C 147.125 133.9375 147.398438 142.710938 146.125 149.570312 C 144.980469 155.734375 142.683594 159.84375 139.839844 161.492188 C 133.789062 164.992188 120.847656 160.441406 106.894531 148.433594 C 105.292969 147.054688 103.683594 145.585938 102.066406 144.03125 C 107.476562 138.113281 112.882812 131.234375 118.160156 123.59375 C 127.441406 122.773438 136.210938 121.425781 144.164062 119.585938 C 144.554688 121.167969 144.902344 122.714844 145.203125 124.230469 Z M 65.457031 160.886719 C 59.546875 162.972656 54.835938 163.035156 51.992188 161.390625 C 45.933594 157.898438 43.417969 144.414062 46.851562 126.328125 C 47.246094 124.257812 47.710938 122.128906 48.253906 119.953125 C 56.117188 121.695312 64.824219 122.945312 74.125 123.699219 C 79.4375 131.175781 85.003906 138.046875 90.609375 144.0625 C 89.382812 145.246094 88.164062 146.371094 86.949219 147.429688 C 79.5 153.941406 72.035156 158.5625 65.457031 160.886719 Z M 37.761719 108.558594 C 28.398438 105.359375 20.667969 101.203125 15.367188 96.664062 C 10.605469 92.585938 8.203125 88.535156 8.203125 85.25 C 8.203125 78.257812 18.625 69.34375 36.007812 63.28125 C 38.117188 62.546875 40.328125 61.851562 42.617188 61.203125 C 45.019531 69.015625 48.171875 77.1875 51.976562 85.449219 C 48.125 93.835938 44.925781 102.136719 42.5 110.042969 C 40.867188 109.574219 39.285156 109.082031 37.761719 108.558594 Z M 47.046875 45.367188 C 43.4375 26.925781 45.832031 13.015625 51.863281 9.523438 C 58.285156 5.804688 72.492188 11.105469 87.460938 24.398438 C 88.417969 25.25 89.378906 26.136719 90.34375 27.058594 C 84.765625 33.046875 79.25 39.867188 73.984375 47.300781 C 64.957031 48.136719 56.3125 49.480469 48.363281 51.28125 C 47.867188 49.269531 47.421875 47.296875 47.046875 45.367188 Z M 129.867188 65.816406 C 127.964844 62.535156 126.015625 59.332031 124.027344 56.214844 C 130.152344 56.988281 136.023438 58.015625 141.535156 59.273438 C 139.878906 64.578125 137.816406 70.125 135.390625 75.808594 C 133.648438 72.5 131.804688 69.167969 129.867188 65.816406 Z M 96.089844 32.921875 C 99.875 37.019531 103.664062 41.59375 107.390625 46.558594 C 103.636719 46.382812 99.832031 46.289062 96 46.289062 C 92.203125 46.289062 88.429688 46.382812 84.699219 46.554688 C 88.425781 41.636719 92.25 37.066406 96.089844 32.921875 Z M 62.101562 65.871094 C 60.203125 69.164062 58.394531 72.480469 56.679688 75.800781 C 54.292969 70.136719 52.25 64.566406 50.582031 59.1875 C 56.058594 57.960938 61.898438 56.960938 67.988281 56.199219 C 65.972656 59.34375 64.003906 62.574219 62.101562 65.871094 Z M 68.164062 114.886719 C 61.875 114.183594 55.945312 113.234375 50.46875 112.042969 C 52.164062 106.566406 54.25 100.878906 56.691406 95.09375 C 58.410156 98.410156 60.222656 101.730469 62.132812 105.027344 C 64.078125 108.386719 66.09375 111.675781 68.164062 114.886719 Z M 96.320312 138.160156 C 92.429688 133.964844 88.554688 129.324219 84.765625 124.335938 C 88.441406 124.480469 92.191406 124.554688 96 124.554688 C 99.914062 124.554688 103.78125 124.464844 107.589844 124.296875 C 103.851562 129.375 100.074219 134.023438 96.320312 138.160156 Z M 135.46875 94.796875 C 138.035156 100.648438 140.195312 106.304688 141.914062 111.6875 C 136.347656 112.957031 130.335938 113.980469 124.003906 114.738281 C 125.996094 111.582031 127.964844 108.324219 129.898438 104.96875 C 131.855469 101.578125 133.710938 98.183594 135.46875 94.796875 Z M 122.792969 100.871094 C 119.792969 106.078125 116.710938 111.042969 113.582031 115.734375 C 107.886719 116.140625 102 116.351562 96 116.351562 C 90.023438 116.351562 84.214844 116.164062 78.617188 115.800781 C 75.363281 111.050781 72.214844 106.070312 69.230469 100.917969 L 69.234375 100.917969 C 66.257812 95.78125 63.519531 90.597656 61.039062 85.449219 C 63.519531 80.285156 66.25 75.097656 69.207031 69.96875 C 72.171875 64.828125 75.292969 59.871094 78.515625 55.148438 C 84.226562 54.71875 90.082031 54.492188 96 54.492188 C 101.945312 54.492188 107.808594 54.71875 113.515625 55.15625 C 116.691406 59.839844 119.789062 64.785156 122.765625 69.925781 C 125.777344 75.125 128.542969 80.277344 131.042969 85.332031 C 128.550781 90.472656 125.789062 95.675781 122.792969 100.871094 Z M 139.714844 9.28125 C 146.144531 12.988281 148.644531 27.941406 144.605469 47.550781 C 144.347656 48.800781 144.054688 50.074219 143.742188 51.367188 C 135.773438 49.527344 127.125 48.160156 118.070312 47.3125 C 112.792969 39.796875 107.328125 32.96875 101.839844 27.054688 C 103.3125 25.636719 104.789062 24.28125 106.253906 23.003906 C 120.429688 10.667969 133.675781 5.800781 139.714844 9.28125 Z M 96 68.105469 C 105.46875 68.105469 113.144531 75.78125 113.144531 85.25 C 113.144531 94.71875 105.46875 102.394531 96 102.394531 C 86.53125 102.394531 78.855469 94.71875 78.855469 85.25 C 78.855469 75.78125 86.53125 68.105469 96 68.105469 Z M 96 68.105469 "/>
</g>
</svg>
