<?xml version="1.0" encoding="UTF-8"?>
<svg xmlns="http://www.w3.org/2000/svg" xmlns:xlink="http://www.w3.org/1999/xlink" width="px" height="0px" viewBox="0 0 384 171" version="1.1">
<defs>
<linearGradient id="linear0" gradientUnits="userSpaceOnUse" x1="0.576616" y1="0.0204645" x2="0.576616" y2="0.944388" gradientTransform="matrix(110.832031,0,0,117.023438,3.75,11.214844)">
<stop offset="0" style="stop-color:rgb(59.215686%,85.098039%,96.470588%);stop-opacity:1;"/>
<stop offset="0.920245" style="stop-color:rgb(5.882353%,50.196078%,80%);stop-opacity:1;"/>
<stop offset="1" style="stop-color:rgb(5.882353%,50.196078%,80%);stop-opacity:1;"/>
</linearGradient>
</defs>
<g id="surface1">
<path style=" stroke:none;fill-rule:nonzero;fill:rgb(0%,23.137255%,34.117647%);fill-opacity:1;" d="M 145.890625 84.03125 C 140.773438 84.03125 136.613281 85.546875 133.425781 88.574219 C 130.238281 91.605469 128.617188 95.574219 128.617188 100.441406 C 128.617188 102.964844 129.019531 105.261719 129.8125 107.371094 C 130.605469 109.480469 131.835938 111.4375 133.492188 113.203125 C 135.148438 114.972656 138.460938 117.375 143.402344 120.429688 C 149.464844 124.132812 153.433594 127.136719 155.335938 129.480469 C 157.242188 131.824219 158.1875 134.28125 158.1875 136.839844 C 158.1875 140.269531 157.058594 143.003906 154.742188 145.0625 C 152.417969 147.117188 149.308594 148.144531 145.457031 148.144531 C 141.394531 148.144531 137.855469 146.710938 134.816406 143.867188 C 131.777344 141.019531 130.246094 137.253906 130.210938 132.53125 L 128.320312 132.53125 L 128.320312 149.667969 L 130.210938 149.667969 C 130.785156 148.046875 131.585938 147.214844 132.628906 147.214844 C 133.132812 147.214844 134.308594 147.5625 136.144531 148.210938 C 140.605469 149.796875 144.269531 150.5625 147.148438 150.5625 C 152.113281 150.5625 156.347656 148.824219 159.878906 145.292969 C 163.402344 141.761719 165.183594 137.503906 165.183594 132.53125 C 165.183594 128.675781 164.007812 125.246094 161.703125 122.253906 C 159.394531 119.261719 154.910156 115.777344 148.210938 111.777344 C 142.441406 108.3125 138.699219 105.492188 136.972656 103.292969 C 135.242188 101.097656 134.355469 98.667969 134.355469 96 C 134.355469 93.117188 135.414062 90.800781 137.503906 89.070312 C 139.59375 87.34375 142.332031 86.484375 145.757812 86.484375 C 149.613281 86.484375 152.828125 87.628906 155.371094 89.933594 C 157.910156 92.242188 159.378906 95.4375 159.8125 99.546875 L 161.703125 99.546875 L 161.703125 84.695312 L 159.945312 84.695312 C 159.730469 85.453125 159.53125 85.9375 159.347656 86.15625 C 159.171875 86.371094 158.828125 86.484375 158.320312 86.484375 C 157.710938 86.484375 156.621094 86.230469 155.070312 85.722656 C 151.757812 84.605469 148.699219 84.03125 145.890625 84.03125 Z M 207.644531 84.03125 C 201.414062 84.03125 195.753906 85.503906 190.640625 88.441406 C 185.519531 91.375 181.464844 95.449219 178.476562 100.640625 C 175.484375 105.832031 174 111.34375 174 117.214844 C 174 125.105469 176.582031 132.136719 181.789062 138.296875 C 187 144.457031 193.242188 148.292969 200.484375 149.769531 C 202.140625 150.632812 204.511719 152.859375 207.613281 156.464844 C 211.109375 160.53125 214.066406 163.46875 216.496094 165.214844 C 218.925781 166.964844 221.550781 168.246094 224.320312 169.09375 C 227.09375 169.9375 230.09375 170.355469 233.335938 170.355469 C 237.265625 170.355469 240.78125 169.671875 243.878906 168.265625 L 243.183594 166.542969 C 241.382812 167.191406 239.46875 167.503906 237.449219 167.503906 C 234.707031 167.503906 231.9375 166.597656 229.160156 164.785156 C 226.386719 162.964844 222.921875 159.496094 218.785156 154.375 C 216.839844 151.921875 215.5 150.375 214.742188 149.769531 C 222.664062 148.21875 229.183594 144.378906 234.265625 138.230469 C 239.347656 132.085938 241.890625 125.074219 241.890625 117.214844 C 241.890625 107.882812 238.570312 100.039062 231.976562 93.644531 C 225.382812 87.25 217.269531 84.03125 207.644531 84.03125 Z M 246.199219 84.03125 L 246.296875 86.054688 C 250.449219 86.054688 252.773438 87.277344 253.292969 89.734375 C 253.488281 90.613281 253.574219 92.238281 253.589844 94.574219 L 253.558594 139.292969 C 253.523438 142.632812 253.046875 144.765625 252.132812 145.691406 C 251.214844 146.609375 249.667969 147.183594 247.425781 147.414062 L 247.324219 149.4375 L 288.695312 149.4375 L 289.757812 139.292969 L 287.867188 139.292969 C 287.328125 142.054688 286.089844 144.035156 284.121094 145.160156 C 282.148438 146.292969 278.65625 146.851562 273.613281 146.851562 L 269.703125 146.851562 C 265.164062 146.851562 262.539062 145.210938 261.84375 141.910156 C 261.703125 141.257812 261.652344 140.558594 261.644531 139.789062 L 261.8125 94.574219 C 261.8125 91.238281 262.234375 89.003906 263.105469 87.910156 C 263.988281 86.820312 265.578125 86.210938 267.878906 86.054688 L 267.777344 84.03125 Z M 208.308594 86.484375 C 215.339844 86.484375 221.078125 89.253906 225.515625 94.839844 C 229.945312 100.425781 232.144531 108.082031 232.144531 117.777344 C 232.144531 126.964844 229.914062 134.324219 225.449219 139.855469 C 220.980469 145.386719 215.035156 148.144531 207.644531 148.144531 C 200.546875 148.144531 194.792969 145.300781 190.375 139.589844 C 185.960938 133.878906 183.777344 126.464844 183.777344 117.347656 C 183.777344 107.980469 185.988281 100.480469 190.441406 94.871094 C 194.890625 89.273438 200.851562 86.484375 208.308594 86.484375 Z M 303.449219 96.097656 C 302.4375 96.097656 301.667969 96.441406 301.09375 97.128906 C 300.503906 97.8125 300.324219 98.640625 300.53125 99.644531 C 300.730469 100.621094 301.28125 101.476562 302.15625 102.199219 C 303.023438 102.917969 303.964844 103.292969 304.972656 103.292969 C 305.949219 103.292969 306.691406 102.917969 307.226562 102.199219 C 307.761719 101.476562 307.925781 100.621094 307.722656 99.644531 C 307.519531 98.640625 306.988281 97.8125 306.164062 97.128906 C 305.335938 96.441406 304.421875 96.097656 303.449219 96.097656 Z M 330.730469 102.960938 C 329.015625 109.558594 325.296875 113.125 319.589844 113.703125 L 319.65625 115.589844 L 326.320312 115.589844 L 326.1875 137.933594 C 326.199219 141.753906 326.316406 144.296875 326.585938 145.589844 C 327.242188 148.691406 329.265625 150.265625 332.652344 150.265625 C 337.550781 150.265625 342.691406 147.28125 348.066406 141.316406 L 346.441406 139.921875 C 342.5625 143.851562 339.128906 145.824219 336.132812 145.824219 C 334.289062 145.824219 333.148438 144.765625 332.71875 142.675781 C 332.601562 142.167969 332.550781 141.574219 332.550781 140.882812 L 332.617188 115.589844 L 342.796875 115.589844 L 342.695312 112.574219 L 332.652344 112.574219 L 332.652344 102.960938 Z M 370.078125 111.382812 C 364.386719 111.382812 359.753906 114.144531 356.15625 119.636719 C 352.574219 125.136719 351.464844 131.230469 352.871094 137.933594 C 353.703125 141.859375 355.351562 144.90625 357.878906 147.050781 C 360.402344 149.195312 363.601562 150.265625 367.425781 150.265625 C 370.988281 150.265625 375.945312 149.363281 378.03125 147.546875 C 380.125 145.730469 382.054688 142.789062 383.835938 138.761719 L 382.410156 137.269531 C 379.570312 142.496094 373.835938 145.128906 369.515625 145.128906 C 363.570312 145.128906 359.929688 141.867188 358.574219 135.382812 C 358.398438 134.554688 358.265625 133.664062 358.175781 132.730469 C 365.246094 131.609375 370.605469 129.628906 374.222656 126.761719 C 377.835938 123.894531 381.460938 120.855469 380.785156 117.644531 C 380.382812 115.738281 379.390625 114.238281 377.867188 113.105469 C 376.324219 111.972656 372.316406 111.382812 370.078125 111.382812 Z M 307.855469 111.613281 L 295.589844 114.429688 L 295.589844 116.617188 L 299.835938 116.089844 C 301.890625 116.089844 303.097656 117.019531 303.480469 118.871094 C 303.609375 119.492188 303.691406 120.363281 303.710938 121.457031 L 303.582031 141.515625 C 303.546875 144.289062 303.238281 145.902344 302.617188 146.386719 C 301.996094 146.871094 300.347656 147.117188 297.679688 147.117188 L 297.613281 149.003906 L 317.070312 149.003906 L 317.039062 147.117188 C 314.335938 147.117188 312.582031 146.902344 311.800781 146.484375 C 311.035156 146.074219 310.503906 145.320312 310.277344 144.164062 C 310.101562 143.335938 310.023438 141.902344 310.011719 139.921875 L 310.078125 111.613281 Z M 366.960938 115.324219 C 368.144531 115.324219 369.289062 115.785156 370.441406 116.683594 C 371.578125 117.582031 372.269531 118.582031 372.496094 119.667969 C 373.605469 125 368.878906 128.6875 358.242188 130.742188 C 357.9375 126.851562 358.613281 123.324219 360.332031 120.132812 C 362.035156 116.945312 364.257812 115.324219 366.960938 115.324219 Z M 366.960938 115.324219 "/>
<path style=" stroke:none;fill-rule:nonzero;fill:rgb(5.882353%,50.196078%,80%);fill-opacity:1;" d="M 118.414062 7.464844 L 12.863281 7.464844 C 5.789062 7.464844 0 13.253906 0 20.328125 L 0 136.734375 C 0 143.804688 5.789062 149.59375 12.863281 149.59375 L 82.382812 149.59375 C 81.59375 115.003906 93.40625 47.875 118.414062 7.464844 Z M 118.414062 7.464844 "/>
<path style=" stroke:none;fill-rule:nonzero;fill:url(#linear0);" d="M 114.582031 11.214844 L 12.863281 11.214844 C 7.839844 11.214844 3.75 15.304688 3.75 20.328125 L 3.75 128.238281 C 26.789062 119.398438 61.363281 111.769531 85.273438 112.117188 C 90.074219 86.996094 104.195312 37.765625 114.582031 11.214844 Z M 114.582031 11.214844 "/>
<path style=" stroke:none;fill-rule:nonzero;fill:rgb(0%,23.137255%,34.117647%);fill-opacity:1;" d="M 143.035156 3.65625 C 135.808594 -2.792969 127.054688 -0.203125 118.414062 7.464844 C 117.132812 8.601562 115.855469 9.867188 114.582031 11.214844 C 99.804688 26.894531 86.085938 55.933594 81.824219 78.109375 C 83.484375 81.476562 84.78125 85.769531 85.636719 89.054688 C 85.855469 89.894531 86.050781 90.683594 86.210938 91.359375 C 86.585938 92.949219 86.785156 93.980469 86.785156 93.980469 C 86.785156 93.980469 86.652344 93.480469 86.109375 91.902344 C 86.007812 91.601562 85.890625 91.269531 85.753906 90.882812 C 85.695312 90.722656 85.617188 90.527344 85.527344 90.316406 C 84.5625 88.078125 81.894531 83.347656 80.722656 81.289062 C 79.71875 84.25 78.832031 87.019531 78.089844 89.523438 C 81.476562 95.722656 83.542969 106.347656 83.542969 106.347656 C 83.542969 106.347656 83.363281 105.660156 82.511719 103.253906 C 81.753906 101.128906 77.992188 94.535156 77.097656 92.992188 C 75.574219 98.625 74.96875 102.425781 75.515625 103.351562 C 76.574219 105.144531 77.585938 108.238281 78.472656 111.664062 C 80.476562 119.371094 81.871094 128.757812 81.871094 128.757812 C 81.871094 128.757812 81.917969 129.382812 81.992188 130.339844 C 81.714844 136.8125 81.882812 143.527344 82.382812 149.59375 C 83.046875 157.625 84.296875 164.527344 85.890625 168.21875 L 86.972656 167.628906 C 84.632812 160.355469 83.683594 150.820312 84.097656 139.824219 C 84.726562 123.015625 88.597656 102.746094 95.742188 81.617188 C 107.816406 49.726562 124.570312 24.136719 139.902344 11.917969 C 125.925781 24.539062 107.015625 65.390625 101.351562 80.519531 C 95.011719 97.457031 90.519531 113.355469 87.8125 128.585938 C 92.484375 114.308594 107.585938 108.171875 107.585938 108.171875 C 107.585938 108.171875 114.996094 99.035156 123.652344 85.980469 C 118.46875 87.164062 109.953125 89.1875 107.101562 90.386719 C 102.894531 92.152344 101.757812 92.753906 101.757812 92.753906 C 101.757812 92.753906 115.386719 84.453125 127.078125 80.695312 C 143.160156 55.371094 160.679688 19.390625 143.035156 3.65625 "/>
</g>
</svg>
